<?xml version="1.0" encoding="UTF-8" standalone="no"?>
<!-- Created with Inkscape (http://www.inkscape.org/) -->

<svg
   xmlns:dc="http://purl.org/dc/elements/1.1/"
   xmlns:cc="http://creativecommons.org/ns#"
   xmlns:rdf="http://www.w3.org/1999/02/22-rdf-syntax-ns#"
   xmlns:svg="http://www.w3.org/2000/svg"
   xmlns="http://www.w3.org/2000/svg"
   xmlns:sodipodi="http://sodipodi.sourceforge.net/DTD/sodipodi-0.dtd"
   xmlns:inkscape="http://www.inkscape.org/namespaces/inkscape"
   version="1.1"
   id="svg2"
   xml:space="preserve"
   width="1440"
   height="977.33331"
   viewBox="0 0 1440 977.33331"
   sodipodi:docname="logo-tambouren.svg"
   inkscape:version="0.92.5 (2060ec1f9f, 2020-04-08)"><metadata
     id="metadata8"><rdf:RDF><cc:Work
         rdf:about=""><dc:format>image/svg+xml</dc:format><dc:type
           rdf:resource="http://purl.org/dc/dcmitype/StillImage" /><dc:title></dc:title></cc:Work></rdf:RDF></metadata><defs
     id="defs6" /><sodipodi:namedview
     pagecolor="#ffffff"
     bordercolor="#666666"
     borderopacity="1"
     objecttolerance="10"
     gridtolerance="10"
     guidetolerance="10"
     inkscape:pageopacity="0"
     inkscape:pageshadow="2"
     inkscape:window-width="2560"
     inkscape:window-height="1385"
     id="namedview4"
     showgrid="false"
     inkscape:zoom="0.90277778"
     inkscape:cx="752.67304"
     inkscape:cy="502.9219"
     inkscape:window-x="1920"
     inkscape:window-y="27"
     inkscape:window-maximized="1"
     inkscape:current-layer="g10" /><g
     id="g10"
     inkscape:groupmode="layer"
     inkscape:label="ink_ext_XXXXXX"
     transform="matrix(1.3333333,0,0,-1.3333333,0,977.33333)"><g
       id="g12"
       transform="scale(0.1)"
       style="fill:#8c0000;fill-opacity:1"><path
         d="m 7594.75,6053.82 h -16.8 l -14.4,-2.39 -12,-7.21 -7.2,-4.8 -4.8,-16.79 -2.4,-24 4.8,-28.81 4.8,-31.19 14.4,-57.6 12,-40.8 38.4,-117.6 48,-124.8 52.8,-132 55.2,-134.4 60,-134.4 60,-129.6 57.6,-120 52.8,-110.39 26.4,-52.81 26.4,-47.99 28.8,-48 28.8,-45.6 19.2,-24 16.8,-9.6 19.2,2.4 24,14.4 14.4,14.4 7.19,12 2.4,12 -4.79,14.4 -19.2,26.4 -33.6,33.6 -19.2,24 -16.8,24 -14.4,28.8 -14.4,28.8 -52.8,103.19 -50.4,108 -50.4,110.4 -50.4,112.8 -43.2,108 -43.2,108 -43.2,105.6 -40.8,103.2 -14.4,38.4 -14.4,38.4 -14.4,40.79 -9.6,40.81 v 11.99 l -2.4,19.2 -2.4,24.01 -2.4,28.79 -4.8,28.81 -7.2,26.39 -7.2,21.61 -9.6,14.39 -7.2,4.8 -7.2,4.8 -9.6,4.81 -7.2,2.39"
         style="fill:#8c0000;fill-opacity:1;fill-rule:evenodd;stroke:none"
         id="path14"
         inkscape:connector-curvature="0" /><path
         d="m 7594.75,6053.82 h -16.8 l -14.4,-2.39 -12,-7.21 -7.2,-4.8 -4.8,-16.79 -2.4,-24 4.8,-28.81 4.8,-31.19 14.4,-57.6 12,-40.8 38.4,-117.6 48,-124.8 52.8,-132 55.2,-134.4 60,-134.4 60,-129.6 57.6,-120 52.8,-110.39 26.4,-52.81 26.4,-47.99 28.8,-48 28.8,-45.6 19.2,-24 16.8,-9.6 19.2,2.4 24,14.4 14.4,14.4 7.19,12 2.4,12 -4.79,14.4 -19.2,26.4 -33.6,33.6 -19.2,24 -16.8,24 -14.4,28.8 -14.4,28.8 -52.8,103.19 -50.4,108 -50.4,110.4 -50.4,112.8 -43.2,108 -43.2,108 -43.2,105.6 -40.8,103.2 -14.4,38.4 -14.4,38.4 -14.4,40.79 -9.6,40.81 v 11.99 l -2.4,19.2 -2.4,24.01 -2.4,28.79 -4.8,28.81 -7.2,26.39 -7.2,21.61 -9.6,14.39 -7.2,4.8 -7.2,4.8 -9.6,4.81 z"
         style="fill:#8c0000;stroke:#0b0c0b;stroke-width:2.3980999;stroke-linecap:butt;stroke-linejoin:miter;stroke-miterlimit:2.61310005;stroke-dasharray:none;stroke-opacity:1;fill-opacity:1"
         id="path16"
         inkscape:connector-curvature="0" /><path
         d="m 2641.2,4928.23 h -11.99 l -12.01,-2.39 -14.4,-2.41 -9.59,-4.79 v -4.8 l 4.79,-12.01 7.2,-16.79 9.6,-21.6 21.61,-55.2 28.8,-67.2 28.79,-69.6 26.41,-69.6 21.59,-57.6 12,-45.6 7.2,-43.2 9.6,-55.2 7.2,-62.4 9.6,-72 9.6,-79.2 7.2,-81.6 9.6,-88.79 7.2,-88.8 12,-180 9.6,-172.8 v -81.6 l 2.4,-74.4 -2.4,-67.2 -2.4,-57.6 v -16.8 -16.8 l 2.4,-12 4.81,-7.2 11.99,-4.8 h 16.8 16.8 l 12,4.8 9.6,7.2 7.2,7.2 7.2,12 4.8,12 v 12 26.4 38.4 l -2.4,50.4 -4.8,60 -2.4,67.2 -4.8,72 -4.8,79.2 -12,168 -14.4,167.99 -7.2,79.21 -4.8,76.79 -7.2,72 -4.8,62.4 -4.8,43.2 -2.4,33.6 -2.4,31.2 -2.4,24 -7.2,38.4 -7.2,31.2 -12,31.2 -14.39,40.8 -9.61,26.4 -12,33.6 -14.39,38.4 -14.41,45.6 -21.59,69.6 -26.41,62.4 -14.4,24 -16.8,21.6 -19.2,14.4 -21.6,7.19"
         style="fill:#8c0000;fill-opacity:1;fill-rule:evenodd;stroke:none"
         id="path18"
         inkscape:connector-curvature="0" /><path
         d="m 2641.2,4928.23 h -11.99 l -12.01,-2.39 -14.4,-2.41 -9.59,-4.79 v -4.8 l 4.79,-12.01 7.2,-16.79 9.6,-21.6 21.61,-55.2 28.8,-67.2 28.79,-69.6 26.41,-69.6 21.59,-57.6 12,-45.6 7.2,-43.2 9.6,-55.2 7.2,-62.4 9.6,-72 9.6,-79.2 7.2,-81.6 9.6,-88.79 7.2,-88.8 12,-180 9.6,-172.8 v -81.6 l 2.4,-74.4 -2.4,-67.2 -2.4,-57.6 v -16.8 -16.8 l 2.4,-12 4.81,-7.2 11.99,-4.8 h 16.8 16.8 l 12,4.8 9.6,7.2 7.2,7.2 7.2,12 4.8,12 v 12 26.4 38.4 l -2.4,50.4 -4.8,60 -2.4,67.2 -4.8,72 -4.8,79.2 -12,168 -14.4,167.99 -7.2,79.21 -4.8,76.79 -7.2,72 -4.8,62.4 -4.8,43.2 -2.4,33.6 -2.4,31.2 -2.4,24 -7.2,38.4 -7.2,31.2 -12,31.2 -14.39,40.8 -9.61,26.4 -12,33.6 -14.39,38.4 -14.41,45.6 -21.59,69.6 -26.41,62.4 -14.4,24 -16.8,21.6 -19.2,14.4 z"
         style="fill:#8c0000;stroke:#0b0c0b;stroke-width:2.3980999;stroke-linecap:butt;stroke-linejoin:miter;stroke-miterlimit:2.61310005;stroke-dasharray:none;stroke-opacity:1;fill-opacity:1"
         id="path20"
         inkscape:connector-curvature="0" /><path
         d="m 9646.73,6586.62 -12,67.2 -9.6,60 -9.6,52.8 -9.6,45.59 -12,38.41 -14.4,28.8 -16.8,21.6 -24,12 h -14.4 -31.2 l -45.6,-2.41 -57.6,-4.79 -136.79,-9.61 -156,-14.4 -79.2,-7.2 -76.8,-7.2 -69.6,-4.8 -64.8,-7.2 -52.8,-4.79 -40.8,-4.81 h -14.4 l -12,-2.4 h -7.2 -2.4 v -4.8 l -2.4,-9.59 v -14.4 l 2.4,-12 2.4,-7.2 4.8,-4.81 4.8,-2.39 4.8,-4.81 7.2,-4.79 7.2,-2.41 h 12 16.8 l 163.2,9.61 172.8,12 81.59,4.8 72,7.2 62.41,7.2 45.59,7.2 57.6,9.6 52.8,11.99 21.6,4.81 16.8,4.79 9.6,2.41 h 4.8 l 208.8,-1079.99 h -139.2 -16.8 -12 -9.6 l -12,2.4 -24,9.6 -21.59,14.4 -21.61,19.2 -21.6,26.39 -36,55.21 -28.79,52.79 -14.41,28.81 -14.4,38.39 -19.19,45.61 -16.81,47.99 -14.4,50.4 -14.4,45.6 -4.8,21.6 -2.4,19.2 -2.39,14.4 v 14.4 l 2.39,24 v 21.6 l 2.4,14.4 v 9.6 l -4.79,7.2 -7.2,4.8 h -12.01 -16.79 l -19.2,-2.4 -16.8,-2.4 -12,-4.8 -7.2,-7.2 -2.41,-24 v -24 l -4.79,-19.2 -14.4,-4.8 -14.4,4.8 -12,9.6 -14.4,9.6 -14.4,7.2 -21.6,2.4 -24.01,-9.6 -23.99,-16.8 -26.4,-21.6 -21.61,-26.4 -21.59,-24 -16.8,-24 -9.6,-16.8 -14.4,-40.8 -4.8,-43.19 9.6,-43.21 19.2,-43.2 28.8,-38.39 26.4,-36 7.2,-14.41 2.4,-12 -9.6,-11.99 -16.81,-9.6 -9.59,-2.4 h -7.2 l -7.2,4.8 -12,2.4 -16.8,-2.4 -26.4,-7.21 -28.8,-11.99 -16.8,-12.01 -24,-31.19 -19.2,-38.4 -7.2,-43.2 4.8,-40.8 9.6,-24 14.4,-26.41 14.4,-23.99 9.6,-24 2.4,-16.8 2.4,-16.8 4.8,-16.8 4.8,-14.4 7.2,-9.6 7.2,-7.2 7.2,-7.2 v -7.2 l -4.8,-4.8 -4.8,-2.4 h -9.6 -9.6 l -21.6,12 -26.4,26.4 -28.8,33.6 -26.4,40.8 -26.4,40.8 -21.6,33.6 -7.2,14.4 -7.2,12 -4.8,7.2 -2.4,4.8 -33.6,43.2 -43.2,52.8 -55.2,57.59 -57.6,55.2 -31.2,24 -31.2,21.61 -28.8,16.79 -31.2,12 -26.4,7.2 -28.8,-2.39 -24,-7.21 -21.59,-16.8 -24,-31.2 -24,-33.6 -12,-11.99 -12,-7.21 h -14.4 l -14.41,7.21 -12,9.6 -12,11.99 -12,12 -11.99,12 -33.6,19.2 -31.2,9.6 h -33.6 l -31.2,-7.19 -28.8,-14.4 -24,-21.6 -19.2,-26.41 -12,-31.19 -2.4,-31.21 2.4,-40.79 4.8,-48 7.2,-50.4 7.2,-45.6 9.6,-43.2 4.8,-28.8 4.8,-16.8 4.8,-19.2 9.6,-33.6 14.4,-40.8 16.8,-50.4 19.2,-57.6 21.6,-60 24,-64.8 23.99,-67.2 48,-127.2 43.2,-112.79 16.8,-45.6 14.41,-36 12,-26.4 7.2,-12 16.8,-16.8 19.2,-7.2 24,4.8 28.79,14.4 9.6,14.39 2.41,19.21 -9.61,26.4 -12,26.39 -14.39,26.4 -16.8,26.41 -14.41,21.6 -9.59,16.79 -7.2,16.8 -9.61,24 -12,28.81 -14.39,38.39 -33.61,86.4 -33.6,100.8 -35.99,100.8 -31.2,96 -14.4,43.2 -12,36 -9.6,33.6 -7.21,24 -7.19,28.8 -7.2,31.2 -4.8,33.6 -2.4,43.2 v 48 45.6 21.6 14.4 9.59 4.81 h 4.8 9.6 14.4 14.4 l 9.6,-2.4 7.2,-4.8 7.2,-4.81 4.8,-7.2 31.2,-26.39 26.39,-21.61 19.2,-14.39 12,-14.4 9.61,-12 4.8,-12 v -14.4 l -4.8,-21.6 v -9.6 l 4.8,-16.8 4.8,-21.6 9.59,-24 24,-57.6 28.81,-62.4 31.19,-62.4 26.41,-55.2 11.99,-24 9.6,-19.2 7.2,-14.4 4.8,-7.2 2.4,-4.8 4.8,-9.6 7.2,-12 9.6,-14.4 24,-38.4 26.4,-43.2 28.8,-45.6 28.8,-43.2 24,-33.6 19.2,-21.6 19.2,-9.6 21.6,2.4 21.6,14.4 19.2,24 4.8,12 v 12 l -7.2,12 -9.6,12 -28.8,21.6 -33.6,26.4 -7.2,9.61 -12,16.79 -14.39,24 -16.81,28.8 -38.4,72 -43.2,81.6 -40.8,86.4 -36,76.8 -14.4,36 -12,28.8 -9.59,24 -4.8,19.2 -2.4,19.2 -2.41,26.4 2.41,28.8 4.79,28.8 7.2,31.19 12,26.4 16.8,21.6 21.61,14.41 14.39,2.4 14.41,-2.4 14.39,-7.21 16.8,-11.99 31.2,-31.21 31.2,-36 62.4,-71.99 64.8,-74.4 28.8,-33.6 26.4,-33.6 21.6,-28.8 16.8,-24 12,-19.2 16.8,-28.8 19.2,-31.2 24,-31.2 26.4,-31.2 26.4,-21.6 28.8,-14.4 h 28.8 l 4.8,2.4 2.4,2.4 4.8,2.4 2.4,2.4 7.2,19.2 7.2,19.2 2.4,19.2 2.4,7.2 4.8,-4.8 12,-9.6 16.8,-12 19.2,-16.8 7.2,-7.2 9.6,-14.4 11.99,-19.2 14.41,-24 14.4,-28.8 19.2,-31.2 19.2,-36 19.2,-36 43.2,-74.4 40.8,-74.4 38.4,-64.79 33.6,-52.81 14.4,-19.2 19.19,-24 21.61,-26.4 21.59,-28.8 21.61,-28.79 16.79,-26.41 9.6,-23.99 v -19.2 l -9.6,-43.2 -9.6,-52.8 -9.6,-55.2 -2.4,-50.4 -4.8,-40.8 -12,-38.4 -19.2,-36 -24,-31.2 -28.8,-24 -31.2,-14.4 -38.39,-7.2 -38.4,2.4 -36,16.8 -36,33.6 -38.4,40.8 -36,48 -48,64.8 -45.6,67.2 -21.6,31.2 -19.2,31.2 -16.8,26.4 -12,24 -19.2,36 -19.2,36 -14.4,14.39 -14.4,12 -14.4,7.2 h -19.2 l -288,-347.99 -283.2,-331.2 -283.19,-321.6 -288,-311.99 -290.4,-304.8 -302.39,-304.8 -312,-304.79 -326.4,-309.6 -4.8,-12 -2.4,-9.6 -4.8,-12 -2.4,-9.6 -4.79,-21.6 v -21.6 l -2.41,-19.2 -4.8,-21.6 -14.4,-38.4 -21.6,-38.4 -28.79,-33.59 -33.61,-31.21 -36,-23.99 -40.79,-19.21 -40.8,-7.2 h -40.8 l -16.8,4.81 -14.4,9.59 -12,12.01 -7.2,14.39 -7.2,38.4 2.4,40.8 12,45.6 16.8,43.21 21.59,35.99 24.01,26.4 11.99,7.2 19.21,9.6 21.6,9.6 28.8,9.6 55.2,24 52.8,24 26.39,21.6 38.4,33.6 36,40.8 33.6,36 4.8,7.2 4.8,7.2 4.8,9.6 4.8,7.2 2.4,9.6 v 7.2 l -4.8,9.6 -12,9.6 -38.4,40.8 -2.4,-2.4 -7.19,-9.6 -9.61,-12 -12,-14.4 -28.8,-38.4 -28.8,-36 -19.2,-21.6 -14.4,-16.8 -16.8,-14.4 -14.39,-9.6 -36,-14.4 -45.6,-14.4 -45.6,-12 -31.2,-12 -26.4,-19.2 -24,-26.4 -24,-31.2 -19.2,-33.6 -19.2,-38.4 -14.4,-36 -9.6,-38.4 -2.4,-33.6 4.8,-38.4 12,-36 19.2,-31.19 24,-28.81 28.8,-21.59 31.2,-16.8 36,-9.6 36,-2.4 28.79,4.79 28.81,7.21 33.6,14.39 31.2,16.81 60,43.19 45.59,50.4 14.4,26.41 12,28.8 9.6,28.79 7.2,24 2.41,4.8 7.19,7.2 9.6,9.6 12,14.4 16.8,16.8 16.8,19.2 21.61,24 23.99,24 55.2,57.6 62.4,64.8 69.6,69.6 76.8,76.8 158.4,160.8 163.2,165.59 81.6,81.6 74.4,76.8 72,72 67.19,67.2 12,12 12,7.2 12,4.8 16.8,4.8 26.4,4.8 31.2,2.4 h 33.6 36 l 74.4,-9.6 76.8,-12 74.4,-16.8 67.2,-16.8 52.8,-14.4 36,-9.6 26.4,-7.2 31.2,-9.6 31.2,-9.6 36,-12 76.8,-26.4 79.2,-33.6 74.39,-33.59 67.2,-33.6 55.21,-36 38.39,-36 21.6,-31.2 14.4,-33.61 9.6,-38.39 4.8,-38.4 -2.4,-86.4 -14.4,-88.8 -28.8,-88.8 -36,-86.4 -40.8,-84 -43.2,-72 -76.8,-105.6 -91.19,-105.6 -105.61,-103.2 -115.19,-98.39 -124.8,-98.4 -134.4,-93.6 -141.6,-91.2 -146.4,-86.4 -307.19,-160.8 -314.4,-143.99 -156,-62.4 -153.59,-57.6 -151.21,-52.8 -143.99,-45.603 -108,-31.199 -120,-28.797 -124.8,-28.801 -132,-28.8 -280.79,-50.399 -290.4,-43.203 -144,-16.797 -144,-16.801 -139.2,-14.398 -134.4,-12 -129.59,-7.199 -122.4,-4.801 -112.8,-2.398 h -103.2 l -213.6,7.199 -199.19,9.597 -189.6,16.801 -180,26.399 -175.2,36 -175.2,48 -175.2,62.398 -180,79.199 -69.59,33.603 -62.4,43.2 -52.8,50.4 -45.6,55.2 -36,64.8 -24,69.59 -16.8,74.4 -2.4,76.8 h 21.6 l 4.8,-2.4 7.2,-9.6 4.8,-14.4 2.4,-14.4 9.6,-36 7.2,-31.2 24,-60 31.2,-64.79 12,-28.8 12,-21.6 7.2,-16.8 2.39,-4.8 2.41,4.8 9.59,16.8 14.41,23.99 16.8,31.21 40.79,69.6 43.2,69.59 31.21,45.6 35.99,48 38.41,45.6 43.19,48 93.61,91.2 100.79,86.4 103.2,84 103.2,72 100.8,64.8 91.2,52.79 9.6,4.8 16.8,9.61 26.4,12 33.6,16.8 84,40.79 96,43.2 98.39,45.6 91.2,36 38.4,16.8 36,9.6 26.4,7.21 19.2,2.39 16.8,-2.39 16.8,-2.41 14.4,-4.8 16.8,-4.8 14.4,-4.8 16.8,-9.6 21.6,-9.59 26.4,-14.41 28.8,-14.4 31.2,-16.8 33.6,-16.8 38.4,-19.2 79.2,-43.2 86.4,-45.6 88.8,-50.4 91.2,-50.39 88.79,-48 86.41,-48 79.19,-45.61 72,-40.79 60,-36 48,-28.8 33.6,-19.2 14.4,-12 40.8,-48 33.6,-36 16.8,-16.8 24,-12 24,-9.6 33.6,-9.6 43.2,-4.8 45.6,2.4 45.6,7.2 43.2,16.8 38.4,24 28.8,33.6 14.39,38.4 2.41,48 -9.6,38.4 -16.8,36 -24,31.2 -26.4,28.8 -33.6,24 -36,21.6 -36,14.39 -38.4,9.61 -38.4,7.19 -33.6,2.41 -31.2,2.4 -26.4,2.39 -24,4.8 -21.6,9.61 -24,12 -24,19.2 -45.6,45.59 -40.8,40.8 -21.6,16.8 -21.6,7.2 -26.4,-2.39 -26.4,-12 -12,-12 -7.2,-12 -4.79,-14.41 4.79,-14.4 4.8,-4.8 14.4,-7.2 16.8,-9.6 19.2,-9.59 45.6,-21.61 36,-24 14.4,-12 12,-14.39 12,-14.4 14.4,-12 14.4,-7.2 14.4,-7.2 19.2,-2.4 16.8,-4.8 88.8,-9.61 69.6,-11.99 31.2,-12 28.8,-14.4 26.4,-21.6 26.4,-31.2 26.4,-50.4 9.6,-48 -7.2,-24 -12,-19.2 -19.2,-14.4 -28.8,-12 -40.8,-2.4 -40.8,9.6 -40.8,16.8 -33.6,24 -24,24 -24,31.2 -21.6,31.2 -26.4,28.8 -24,24 -36,26.4 -40.8,26.4 -40.8,24 -146.39,88.8 -153.61,91.19 -74.39,43.2 -72,40.8 -69.6,38.4 -62.4,33.6 -33.6,16.8 -33.6,14.4 -36,16.8 -33.6,16.81 -38.4,19.19 -52.8,26.4 -62.4,33.6 -74.4,38.4 -81.6,45.6 -91.19,50.4 -96.01,52.8 -103.19,57.6 -213.6,120 -220.8,122.4 -108,60 -105.6,60 -100.8,57.59 -95.99,52.8 -134.41,74.4 -134.39,74.41 -129.6,74.39 -122.4,72 -26.4,16.8 -19.2,16.8 -14.4,19.2 -9.6,19.2 -14.4,48 -12,62.4 -4.8,31.2 v 38.4 36 l 4.8,21.6 12,21.6 14.4,21.6 12,19.2 12,19.2 2.4,12 -2.4,9.6 -9.6,9.6 -16.8,7.2 -14.4,4.8 -14.4,-2.4 -12,-2.4 -12,-9.6 -19.2,-24 -14.4,-31.2 -9.6,-36 -7.2,-38.4 -4.8,-31.2 v -26.4 l 7.2,-57.6 14.4,-60 24,-62.4 28.8,-62.4 36,-60 38.4,-57.6 43.2,-50.4 43.2,-43.2 7.2,-7.2 7.2,-4.8 7.2,-4.79 9.6,-4.81 40.8,-14.4 38.4,-12 14.4,-7.2 7.2,-9.59 2.4,-12.01 -4.8,-16.79 -21.6,-31.2 -36,-36 -43.2,-40.8 -48,-38.4 -50.4,-38.4 -45.6,-33.6 -38.4,-26.4 -28.8,-19.2 -31.2,-16.8 -21.6,-4.8 -16.8,12 -21.6,31.2 -28.8,52.8 -31.2,62.4 -31.2,74.39 -33.6,81.61 -67.2,177.59 -64.8,182.4 -31.19,86.4 -28.81,84 -26.39,76.8 -21.61,67.2 -19.19,55.2 -14.4,43.2 -7.2,16.8 -4.81,12 -2.4,7.2 -2.39,2.4 -24,2.4 h -26.41 l -21.59,-2.4 h -7.2 v -28.8 -9.6 l 2.4,-12 2.4,-14.4 4.8,-19.2 11.99,-43.2 16.81,-55.2 19.19,-60 21.61,-67.2 24,-69.6 24,-74.4 52.8,-144 50.39,-136.8 24.01,-60 21.59,-50.4 19.2,-43.19 14.4,-31.2 31.2,-57.61 33.6,-57.59 12,-24 12.01,-19.2 7.19,-12 2.4,-4.8 -4.8,-2.41 -9.6,-9.59 -16.8,-12 -19.2,-12 -40.8,-26.4 -33.6,-12 -28.79,4.8 -26.41,12 -21.59,16.8 -19.2,19.2 -7.2,9.6 -9.6,19.2 -14.41,28.8 -16.8,33.6 -38.4,83.99 -45.59,96 -43.2,98.4 -40.8,91.2 -16.8,40.8 -14.4,36 -12,26.4 -7.2,21.6 -12,40.8 -16.8,48 -16.8,55.2 -19.2,60 -43.2,127.2 -48,129.6 -21.6,62.39 -24,57.61 -21.6,52.79 -21.6,45.6 -21.6,38.4 -16.8,28.8 -16.8,19.2 -14.4,4.8 -21.6,-2.4 -12,-7.2 -7.2,-9.6 v -14.39 l 2.4,-9.61 2.4,-12 2.4,-14.39 4.8,-16.8 14.4,-43.2 16.8,-50.41 19.2,-55.2 21.6,-62.39 21.6,-64.8 24,-64.8 45.6,-127.2 40.8,-110.4 16.8,-43.2 12,-33.6 9.6,-21.6 2.4,-9.6 48,-110.4 45.6,-105.6 19.2,-43.19 16.8,-36 9.6,-24 4.8,-7.21 h -4.8 l -9.6,-2.4 -16.8,-2.39 -16.8,-2.41 -40.8,-4.79 h -31.2 l -21.6,7.2 -21.6,9.6 -21.6,19.2 -21.6,21.59 -40.8,55.2 -38.4,72 -38.4,81.6 -36,93.6 -33.6,98.4 -31.2,100.8 -28.798,103.2 -26.399,98.4 -24,93.6 -21.601,86.4 -16.801,76.8 -14.398,60 -7.203,23.99 -4.797,21.6 -4.801,14.4 -2.399,9.6 -2.398,7.2 -4.801,4.8 -7.203,4.8 -7.199,4.81 -23.996,2.39 h -26.403 l -19.199,-2.39 h -9.597 v -4.81 l 2.398,-9.6 v -12 l 2.398,-16.79 2.403,-14.41 2.398,-19.2 7.199,-24 7.2,-28.8 16.8,-67.2 21.602,-74.39 21.598,-74.4 21.601,-69.6 9.598,-28.8 9.601,-26.4 7.2,-21.6 7.199,-14.4 33.601,-81.6 33.598,-91.2 16.801,-43.2 12,-36 7.199,-26.4 2.399,-16.8 -4.801,-14.4 -9.598,-12 -16.801,-2.4 -19.199,7.2 -2.398,2.4 -4.801,7.2 -4.797,7.2 -7.203,16.8 -7.199,16.8 -12,28.8 -16.801,38.4 -21.598,48 -48,110.4 -52.801,129.6 -52.796,136.8 -48,131.99 -19.204,62.4 -16.796,60 -9.602,50.4 -7.199,45.6 v 43.2 l 7.199,45.6 16.801,40.8 19.199,43.2 55.199,84 62.399,88.8 55.199,74.4 64.801,84 69.597,88.8 74.4,93.6 156,189.6 151.2,184.79 12,14.4 2.4,9.6 -2.4,9.6 -9.6,12 -9.6,9.6 -7.2,12 -7.2,9.6 -4.8,12 -50.4,96 -60,112.8 -62.4,117.6 -60,117.6 -28.8,55.2 -28.8,55.2 -26.4,52.79 -23.997,45.61 -21.602,43.2 -16.797,38.39 -14.402,28.8 -9.598,24 -7.203,9.6 -7.199,9.6 -9.602,7.2 -9.597,4.8 -24,2.4 h -26.399 l -19.199,-2.4 h -9.602 v -4.8 -12 -16.8 -16.8 l 4.801,-14.4 12,-19.2 12,-19.2 16.801,-16.8 2.398,-4.8 4.801,-7.2 7.196,-9.6 7.203,-14.4 21.597,-33.6 24.004,-45.6 28.797,-52.8 31.199,-57.59 33.6,-62.41 33.6,-64.79 64.8,-129.6 60,-117.6 24,-48 19.2,-40.8 14.4,-31.2 7.2,-19.2 v -19.2 l -14.4,-28.8 -19.2,-33.6 -26.4,-36 -57.6,-74.4 -48,-64.79 -12,-16.81 -14.4,-21.59 -16.8,-21.6 -19.2,-26.4 -45.597,-60 -52.8,-64.8 -110.399,-136.8 -108,-129.6 -38.398,-48 -40.801,-55.2 -16.801,-28.8 -16.797,-24 -9.601,-19.2 -7.199,-14.4 -7.2,-28.8 -9.601,-33.6 -12,-28.8 -12,-24 -9.602,-12 -7.199,-12 -7.199,-7.2 -2.399,-2.4 -2.398,2.4 -9.602,4.8 -14.402,7.2 -16.797,9.6 -48,26.4 -52.801,31.2 -55.199,31.2 -52.801,31.2 -21.597,14.4 -19.2,12 -16.8,12 -9.598,7.2 -4.801,9.6 -4.801,7.2 -4.8,7.2 -4.797,7.2 -21.602,52.8 -9.601,55.2 2.402,55.2 9.598,50.4 21.597,50.4 31.203,45.6 38.399,38.4 48,31.2 -2.399,7.19 -4.8,4.81 -9.602,7.19 -12,7.2 -24,4.81 -28.801,-4.81 -28.797,-9.59 -28.8,-14.4 -28.797,-16.8 -24.0002,-19.2 -21.6015,-19.2 -14.3985,-16.8 -21.6015,-38.4 -16.7969,-38.4 -9.60159,-38.4 v -40.8 l 4.79688,-55.2 9.60161,-45.6 9.6015,-40.8 12,-38.4 16.7969,-33.6 19.2031,-33.6 23.9961,-33.6 31.2031,-36 40.797,-40.8 45.601,-40.8 45.598,-38.4 38.402,-28.8 71.997,-40.8 76.8,-38.4 36,-16.8 31.2,-16.79 24,-12.01 14.398,-12 4.801,-7.2 7.203,-12 9.598,-19.2 12,-24 28.796,-62.39 31.204,-72 31.199,-79.2 31.199,-76.8 26.398,-69.6 19.204,-55.2 2.398,-9.6 4.801,-12 7.199,-16.8 7.199,-19.2 16.801,-43.2 21.598,-48 24,-48 24,-43.2 26.398,-36 24,-21.6 24.004,-7.2 35.996,-7.2 33.599,-4.8 24,-7.2 7.2,-7.2 7.2,-16.8 12,-24 14.4,-26.4 28.8,-62.39 31.2,-55.2 33.6,-45.6 43.2,-38.4 48,-28.8 50.4,-12 45.6,4.8 38.4,12 36,7.2 33.6,-4.8 2.4,-2.4 4.8,-7.21 4.8,-9.59 7.2,-14.41 16.8,-31.2 16.79,-38.39 19.21,-40.8 19.2,-38.4 16.8,-33.6 14.39,-24 16.81,-14.4 26.39,-16.8 33.61,-12 38.39,-12 38.41,-4.8 40.79,2.4 38.4,9.6 31.2,19.2 12,14.4 12,14.4 9.6,12 9.6,7.2 12,-4.8 16.8,-12 21.6,-14.4 21.6,-9.6 21.6,-2.4 h 21.6 l 26.4,7.2 26.4,7.2 48,24 38.4,21.6 12,9.6 21.6,14.4 26.4,19.2 31.2,23.99 31.2,24.01 28.8,23.99 21.6,21.61 16.8,16.8 19.2,26.4 16.8,19.19 9.6,4.81 9.6,2.39 7.2,-4.79 9.6,-9.6 4.8,-9.6 2.4,-14.4 4.8,-16.81 2.39,-23.99 7.21,-48.01 9.6,-45.59 12,-38.41 16.8,-38.39 19.2,-33.6 24,-33.6 28.8,-28.8 28.79,-26.4 33.6,-21.6 33.61,-16.8 50.39,-19.2 55.2,-14.4 26.4,-4.8 h 26.4 l 24,2.4 19.2,9.6 14.4,12 14.4,16.8 12,16.8 7.2,14.4 v 16.8 21.6 l -2.39,28.8 -4.81,31.2 -2.4,31.2 -2.4,26.4 -2.4,21.6 2.4,12 4.8,7.2 7.2,4.79 h 7.2 12 l 9.6,-2.39 16.8,-7.2 21.6,-12 26.4,-12 62.4,-31.2 69.6,-36 67.2,-36 57.6,-31.2 24,-14.4 16.8,-12 12,-7.2 4.8,-4.8 2.4,-12 -2.4,-9.6 -9.6,-7.2 -12,-12 -19.2,-14.4 -28.8,-16.8 -36,-16.8 -38.4,-21.6 -86.4,-43.2 -81.6,-40.8 -69.6,-38.4 -72,-48 -74.4,-52.8 -74.39,-60 -74.41,-60 -69.59,-64.79 -62.4,-62.41 -55.2,-59.99 -45.6,-52.8 -40.8,-52.8 -36,-52.8 -31.2,-52.8 -28.8,-55.2 -21.6,-55.2 -14.4,-55.2 -9.6,-60 -2.4,-19.2 v -24 l -2.4,-28.8 v -36 -76.79 l 2.4,-91.2 4.8,-189.6 7.2,-170.398 4.8,-43.203 7.2,-38.399 9.6,-31.199 16.8,-28.801 19.2,-26.398 21.6,-26.398 28.8,-28.801 33.6,-31.199 60,-50.403 67.2,-48 74.39,-47.996 79.2,-43.203 175.2,-81.598 180,-72 88.8,-31.195 86.4,-26.402 84,-26.399 76.8,-21.601 72,-16.797 62.39,-14.4025 52.8,-12 43.21,-7.1992 153.6,-21.6016 155.99,-16.7969 151.2,-14.4023 146.4,-9.6016 h 28.8 l 38.4,-2.3984 48,2.3984 h 57.6 l 127.2,4.8047 141.59,4.7969 144,4.8008 132,7.1992 57.6,4.8008 50.4,2.3984 43.2,4.8008 33.6,2.3984 163.2,19.1993 158.4,21.6015 153.6,26.4023 151.19,28.797 290.4,64.801 283.2,79.199 273.59,95.996 271.2,110.398 134.4,62.403 136.8,69.601 136.8,71.996 136.79,76.797 139.2,86.403 141.6,100.8 141.6,115.2 136.8,127.2 129.6,136.8 120,143.99 103.19,151.2 86.4,158.4 9.61,21.6 11.99,28.8 14.4,31.19 14.4,33.61 28.8,76.8 31.2,81.59 28.8,79.2 24,69.6 12,31.2 7.2,26.4 7.2,21.6 2.4,16.8 4.8,24 4.8,33.6 2.4,36 4.8,43.2 2.4,96 v 105.6 l -7.2,105.6 -16.8,96 -9.6,43.2 -14.4,38.4 -16.8,33.6 -19.2,26.39 -103.2,88.8 -108,76.8 -112.8,60 -117.59,48 -62.4,19.2 -62.4,14.4 -62.4,12 -64.8,7.2 -64.8,2.4 h -67.2 l -67.2,-2.4 -67.2,-7.2 v 45.6 l 995.99,1036.79 110.4,-4.8 16.8,-2.4 h 14.4 14.4 l 16.8,2.4 26.4,4.8 26.4,2.4 26.4,4.8 24,7.2 36,16.8 36,16.8 31.2,9.6 28.8,-4.8 14.4,-12 14.4,-19.2 14.4,-24 16.8,-19.2 26.39,-24 31.21,-16.8 31.2,-12 33.6,-7.2 h 35.99 l 33.61,2.4 31.2,9.6 28.8,14.4 52.8,36 50.39,50.4 21.6,26.4 16.8,31.2 12,28.8 7.2,31.2 2.4,31.2 v 31.2 12 l -2.4,12 v 7.2 2.4 h 4.8 l 12,2.4 h 16.8 l 14.4,-2.4 7.2,-9.6 9.6,-19.2 12,-21.6 9.6,-19.2 16.8,-21.6 24,-19.2 28.8,-14.4 28.8,-12 31.2,-9.6 31.2,-4.8 h 26.4 l 21.6,2.4 43.2,19.2 40.8,28.8 36,43.2 31.2,48 26.4,52.8 21.6,55.2 14.4,55.2 9.6,52.8 2.4,9.6 v 12 9.6 l -2.4,11.99 -12,55.2 -14.4,60 -4.8,28.8 -4.8,21.6 -2.4,16.8 v 9.6 l 7.2,9.6 14.4,7.2 19.2,12 19.2,14.4 55.19,62.4 45.58,79.2 16.8,40.8 12,36 9.6,31.2 2.4,19.2 -4.8,24 -12,31.2 -16.8,36 -21.6,38.4 -23.97,38.4 -24,36 -26.4,33.6 -26.4,26.4 -24,21.6 -21.6,19.2 -19.2,16.8 -16.8,14.4 -31.2,21.6 -19.2,19.19 -9.6,16.81 v 14.4 l 14.4,21.59 24,24 14.4,12.01 14.4,16.8 21.6,19.2 21.6,21.59 52.8,55.21 62.37,62.39 67.2,69.61 74.4,76.79 76.8,79.2 76.8,81.6 79.2,79.2 74.4,79.2 69.6,74.4 64.8,69.6 28.8,31.2 28.8,28.8 24,26.4 21.6,24 19.2,21.6 14.4,16.8 12,14.4 9.6,9.59 16.8,21.61 12,19.19 9.6,19.21 2.4,16.79 -2.4,21.6 -4.8,21.6 -9.6,26.4 -14.4,31.21 -12,23.99 -19.2,31.2 -21.6,33.6 -24,36 -28.8,36 -26.4,31.2 -26.4,28.8 -24,19.2 -33.6,24 -50.4,33.6 -24,16.8 -24,12 -16.8,4.8 h -9.6 l -7.2,-16.8 4.8,-19.2 14.4,-19.2 19.2,-21.6 45.6,-40.8 40.8,-36 33.6,-43.2 31.2,-43.2 12,-19.19 9.6,-14.41 7.2,-9.6 2.4,-4.8 -2.4,-2.4 -7.2,-7.2 -9.6,-12 -14.4,-16.8 -19.2,-19.2 -19.2,-21.59 -24,-26.41 -26.4,-31.2 -62.4,-64.8 -67.2,-74.4 -72,-79.19 -76.8,-84 -74.4,-81.6 -76.8,-81.6 -69.6,-76.8 -64.77,-69.6 -31.2,-31.2 -26.4,-31.2 -26.4,-24 -21.6,-24 -19.2,-19.2 -14.4,-14.4 -12,-11.99 -7.2,-7.21 -21.6,-16.8 -16.8,-14.4 -14.4,-9.59 -4.8,-4.81 v 4.81 l -2.4,14.39 -2.4,21.6 -4.8,28.8 -9.6,74.4 -12,81.6 -12,86.4 -9.6,74.4 -4.8,28.8 -4.8,26.4 -4.8,16.8 -2.4,7.2 -4.8,4.8 v 2.4 l -2.4,4.8 -2.4,9.6 z m 242.4,-1413.59 -7.2,-2.4 h -16.8 l -9.6,2.4 -24,7.2 -33.6,19.2 -36,21.6 -31.2,24.01 -43.2,35.99 -43.2,31.2 -43.2,33.6 -43.2,36 -19.2,16.8 -28.8,24 -31.2,31.2 -38.4,38.4 -84,86.4 -91.2,100.8 -88.79,105.6 -79.2,107.99 -31.21,52.8 -26.39,50.41 -19.2,45.59 -12,43.2 v 33.6 l 7.2,43.2 9.6,19.2 9.6,19.2 14.4,14.4 16.79,9.6 12.01,2.4 9.6,-4.8 9.6,-7.2 9.6,-9.6 14.4,-26.39 16.79,-24.01 14.41,-16.8 14.39,-12 16.81,-12 14.4,-12 7.2,-9.6 7.2,-16.8 12,-21.6 12,-26.4 26.39,-57.6 24,-55.19 24,-48 28.8,-43.2 31.2,-36 38.4,-31.2 40.8,-26.41 43.2,-19.19 48,-9.6 50.4,-2.4 h 12 l 14.4,2.4 12,2.4 12,2.4 38.4,12 26.4,7.2 24,-2.4 28.8,-14.4 36,-28.8 38.4,-36 40.8,-40.8 40.8,-48 33.6,-50.4 26.4,-52.8 14.4,-52.8 2.39,-52.8 -9.59,-38.4 -14.4,-36 -21.6,-36 -24,-31.2 -7.2,-9.6 -9.6,-9.6 -7.2,-7.2 z m -1000.79,537.6 -2.4,14.4 2.4,21.6 4.8,26.39 7.2,19.21 4.8,12 7.2,7.2 7.2,4.8 7.2,4.79 9.6,2.41 h 16.8 l 19.2,-2.41 h 21.6 l 43.2,-4.79 24,-7.2 9.6,-7.21 14.4,-16.79 16.79,-21.6 21.61,-26.4 43.19,-62.4 43.2,-60 19.2,-24 21.6,-26.4 26.4,-28.8 28.8,-31.2 64.8,-64.8 69.6,-62.4 69.6,-62.4 64.8,-52.8 31.2,-24 26.4,-19.2 24,-16.8 19.2,-12 38.4,-19.2 36,-19.2 26.4,-16.8 16.8,-14.4 12,-26.4 9.6,-40.79 4.8,-50.41 2.4,-57.59 v -60 l -2.4,-60 -4.8,-55.2 -7.2,-45.6 -14.4,-50.4 -19.2,-43.2 -24,-33.6 -26.4,-24 -33.6,-14.4 h -33.6 l -38.4,9.6 -38.4,26.4 -16.8,14.4 -19.2,24 -24,28.8 -24,31.2 -52.8,76.8 -55.19,84 -50.41,84 -45.59,74.39 -19.2,31.2 -16.8,26.41 -12,21.59 -7.2,12 -98.41,163.2 -95.99,163.2 -45.6,79.2 -40.8,74.4 -36,67.2 z m -252,-1187.99 98.4,96 12,12 9.6,7.2 4.8,2.4 h 4.8 l 14.4,-4.8 16.8,-12 16.8,-16.8 16.8,-19.2 14.4,-21.6 9.6,-19.2 4.8,-19.2 -2.4,-16.8 -9.6,-12 -19.2,-9.6 -24,-9.6 -28.8,-4.8 -28.8,-4.8 -26.4,-4.8 -24,-2.4 -16.8,-2.4 -26.4,-2.4 h -26.4 l -9.6,2.4 -7.2,7.2 -2.4,9.6 2.4,14.4 2.4,4.8 4.8,4.8 7.2,9.6 z M 2785.2,2816.26 l 9.6,-266.4 h -81.6 l -28.79,7.2 -26.41,9.6 -21.59,16.8 -21.61,19.2 -33.59,48 -26.41,55.2 -28.8,79.19 -23.99,74.41 -9.6,31.2 -4.8,28.8 -2.4,19.2 2.4,14.39 4.8,4.81 h 7.2 9.6 l 12,-4.81 31.2,-14.39 38.39,-19.2 43.2,-21.6 45.61,-24 40.8,-21.6 33.59,-19.21 21.61,-11.99 9.59,-4.8"
         style="fill:#8c0000;fill-opacity:1;fill-rule:evenodd;stroke:none"
         id="path22"
         inkscape:connector-curvature="0" /><path
         d="m 9646.73,6586.62 -12,67.2 -9.6,60 -9.6,52.8 -9.6,45.59 -12,38.41 -14.4,28.8 -16.8,21.6 -24,12 h -14.4 -31.2 l -45.6,-2.41 -57.6,-4.79 -136.79,-9.61 -156,-14.4 -79.2,-7.2 -76.8,-7.2 -69.6,-4.8 -64.8,-7.2 -52.8,-4.79 -40.8,-4.81 h -14.4 l -12,-2.4 h -7.2 -2.4 v -4.8 l -2.4,-9.59 v -14.4 l 2.4,-12 2.4,-7.2 4.8,-4.81 4.8,-2.39 4.8,-4.81 7.2,-4.79 7.2,-2.41 h 12 16.8 l 163.2,9.61 172.8,12 81.59,4.8 72,7.2 62.41,7.2 45.59,7.2 57.6,9.6 52.8,11.99 21.6,4.81 16.8,4.79 9.6,2.41 h 4.8 l 208.8,-1079.99 h -139.2 -16.8 -12 -9.6 l -12,2.4 -24,9.6 -21.59,14.4 -21.61,19.2 -21.6,26.39 -36,55.21 -28.79,52.79 -14.41,28.81 -14.4,38.39 -19.19,45.61 -16.81,47.99 -14.4,50.4 -14.4,45.6 -4.8,21.6 -2.4,19.2 -2.39,14.4 v 14.4 l 2.39,24 v 21.6 l 2.4,14.4 v 9.6 l -4.79,7.2 -7.2,4.8 h -12.01 -16.79 l -19.2,-2.4 -16.8,-2.4 -12,-4.8 -7.2,-7.2 -2.41,-24 v -24 l -4.79,-19.2 -14.4,-4.8 -14.4,4.8 -12,9.6 -14.4,9.6 -14.4,7.2 -21.6,2.4 -24.01,-9.6 -23.99,-16.8 -26.4,-21.6 -21.61,-26.4 -21.59,-24 -16.8,-24 -9.6,-16.8 -14.4,-40.8 -4.8,-43.19 9.6,-43.21 19.2,-43.2 28.8,-38.39 26.4,-36 7.2,-14.41 2.4,-12 -9.6,-11.99 -16.81,-9.6 -9.59,-2.4 h -7.2 l -7.2,4.8 -12,2.4 -16.8,-2.4 -26.4,-7.21 -28.8,-11.99 -16.8,-12.01 -24,-31.19 -19.2,-38.4 -7.2,-43.2 4.8,-40.8 9.6,-24 14.4,-26.41 14.4,-23.99 9.6,-24 2.4,-16.8 2.4,-16.8 4.8,-16.8 4.8,-14.4 7.2,-9.6 7.2,-7.2 7.2,-7.2 v -7.2 l -4.8,-4.8 -4.8,-2.4 h -9.6 -9.6 l -21.6,12 -26.4,26.4 -28.8,33.6 -26.4,40.8 -26.4,40.8 -21.6,33.6 -7.2,14.4 -7.2,12 -4.8,7.2 -2.4,4.8 -33.6,43.2 -43.2,52.8 -55.2,57.59 -57.6,55.2 -31.2,24 -31.2,21.61 -28.8,16.79 -31.2,12 -26.4,7.2 -28.8,-2.39 -24,-7.21 -21.59,-16.8 -24,-31.2 -24,-33.6 -12,-11.99 -12,-7.21 h -14.4 l -14.41,7.21 -12,9.6 -12,11.99 -12,12 -11.99,12 -33.6,19.2 -31.2,9.6 h -33.6 l -31.2,-7.19 -28.8,-14.4 -24,-21.6 -19.2,-26.41 -12,-31.19 -2.4,-31.21 2.4,-40.79 4.8,-48 7.2,-50.4 7.2,-45.6 9.6,-43.2 4.8,-28.8 4.8,-16.8 4.8,-19.2 9.6,-33.6 14.4,-40.8 16.8,-50.4 19.2,-57.6 21.6,-60 24,-64.8 23.99,-67.2 48,-127.2 43.2,-112.79 16.8,-45.6 14.41,-36 12,-26.4 7.2,-12 16.8,-16.8 19.2,-7.2 24,4.8 28.79,14.4 9.6,14.39 2.41,19.21 -9.61,26.4 -12,26.39 -14.39,26.4 -16.8,26.41 -14.41,21.6 -9.59,16.79 -7.2,16.8 -9.61,24 -12,28.81 -14.39,38.39 -33.61,86.4 -33.6,100.8 -35.99,100.8 -31.2,96 -14.4,43.2 -12,36 -9.6,33.6 -7.21,24 -7.19,28.8 -7.2,31.2 -4.8,33.6 -2.4,43.2 v 48 45.6 21.6 14.4 9.59 4.81 h 4.8 9.6 14.4 14.4 l 9.6,-2.4 7.2,-4.8 7.2,-4.81 4.8,-7.2 31.2,-26.39 26.39,-21.61 19.2,-14.39 12,-14.4 9.61,-12 4.8,-12 v -14.4 l -4.8,-21.6 v -9.6 l 4.8,-16.8 4.8,-21.6 9.59,-24 24,-57.6 28.81,-62.4 31.19,-62.4 26.41,-55.2 11.99,-24 9.6,-19.2 7.2,-14.4 4.8,-7.2 2.4,-4.8 4.8,-9.6 7.2,-12 9.6,-14.4 24,-38.4 26.4,-43.2 28.8,-45.6 28.8,-43.2 24,-33.6 19.2,-21.6 19.2,-9.6 21.6,2.4 21.6,14.4 19.2,24 4.8,12 v 12 l -7.2,12 -9.6,12 -28.8,21.6 -33.6,26.4 -7.2,9.61 -12,16.79 -14.39,24 -16.81,28.8 -38.4,72 -43.2,81.6 -40.8,86.4 -36,76.8 -14.4,36 -12,28.8 -9.59,24 -4.8,19.2 -2.4,19.2 -2.41,26.4 2.41,28.8 4.79,28.8 7.2,31.19 12,26.4 16.8,21.6 21.61,14.41 14.39,2.4 14.41,-2.4 14.39,-7.21 16.8,-11.99 31.2,-31.21 31.2,-36 62.4,-71.99 64.8,-74.4 28.8,-33.6 26.4,-33.6 21.6,-28.8 16.8,-24 12,-19.2 16.8,-28.8 19.2,-31.2 24,-31.2 26.4,-31.2 26.4,-21.6 28.8,-14.4 h 28.8 l 4.8,2.4 2.4,2.4 4.8,2.4 2.4,2.4 7.2,19.2 7.2,19.2 2.4,19.2 2.4,7.2 4.8,-4.8 12,-9.6 16.8,-12 19.2,-16.8 7.2,-7.2 9.6,-14.4 11.99,-19.2 14.41,-24 14.4,-28.8 19.2,-31.2 19.2,-36 19.2,-36 43.2,-74.4 40.8,-74.4 38.4,-64.79 33.6,-52.81 14.4,-19.2 19.19,-24 21.61,-26.4 21.59,-28.8 21.61,-28.79 16.79,-26.41 9.6,-23.99 v -19.2 l -9.6,-43.2 -9.6,-52.8 -9.6,-55.2 -2.4,-50.4 -4.8,-40.8 -12,-38.4 -19.2,-36 -24,-31.2 -28.8,-24 -31.2,-14.4 -38.39,-7.2 -38.4,2.4 -36,16.8 -36,33.6 -38.4,40.8 -36,48 -48,64.8 -45.6,67.2 -21.6,31.2 -19.2,31.2 -16.8,26.4 -12,24 -19.2,36 -19.2,36 -14.4,14.39 -14.4,12 -14.4,7.2 h -19.2 l -288,-347.99 -283.2,-331.2 -283.19,-321.6 -288,-311.99 -290.4,-304.8 -302.39,-304.8 -312,-304.79 -326.4,-309.6 -4.8,-12 -2.4,-9.6 -4.8,-12 -2.4,-9.6 -4.79,-21.6 v -21.6 l -2.41,-19.2 -4.8,-21.6 -14.4,-38.4 -21.6,-38.4 -28.79,-33.59 -33.61,-31.21 -36,-23.99 -40.79,-19.21 -40.8,-7.2 h -40.8 l -16.8,4.81 -14.4,9.59 -12,12.01 -7.2,14.39 -7.2,38.4 2.4,40.8 12,45.6 16.8,43.21 21.59,35.99 24.01,26.4 11.99,7.2 19.21,9.6 21.6,9.6 28.8,9.6 55.2,24 52.8,24 26.39,21.6 38.4,33.6 36,40.8 33.6,36 4.8,7.2 4.8,7.2 4.8,9.6 4.8,7.2 2.4,9.6 v 7.2 l -4.8,9.6 -12,9.6 -38.4,40.8 -2.4,-2.4 -7.19,-9.6 -9.61,-12 -12,-14.4 -28.8,-38.4 -28.8,-36 -19.2,-21.6 -14.4,-16.8 -16.8,-14.4 -14.39,-9.6 -36,-14.4 -45.6,-14.4 -45.6,-12 -31.2,-12 -26.4,-19.2 -24,-26.4 -24,-31.2 -19.2,-33.6 -19.2,-38.4 -14.4,-36 -9.6,-38.4 -2.4,-33.6 4.8,-38.4 12,-36 19.2,-31.19 24,-28.81 28.8,-21.59 31.2,-16.8 36,-9.6 36,-2.4 28.79,4.79 28.81,7.21 33.6,14.39 31.2,16.81 60,43.19 45.59,50.4 14.4,26.41 12,28.8 9.6,28.79 7.2,24 2.41,4.8 7.19,7.2 9.6,9.6 12,14.4 16.8,16.8 16.8,19.2 21.61,24 23.99,24 55.2,57.6 62.4,64.8 69.6,69.6 76.8,76.8 158.4,160.8 163.2,165.59 81.6,81.6 74.4,76.8 72,72 67.19,67.2 12,12 12,7.2 12,4.8 16.8,4.8 26.4,4.8 31.2,2.4 h 33.6 36 l 74.4,-9.6 76.8,-12 74.4,-16.8 67.2,-16.8 52.8,-14.4 36,-9.6 26.4,-7.2 31.2,-9.6 31.2,-9.6 36,-12 76.8,-26.4 79.2,-33.6 74.39,-33.59 67.2,-33.6 55.21,-36 38.39,-36 21.6,-31.2 14.4,-33.61 9.6,-38.39 4.8,-38.4 -2.4,-86.4 -14.4,-88.8 -28.8,-88.8 -36,-86.4 -40.8,-84 -43.2,-72 -76.8,-105.6 -91.19,-105.6 -105.61,-103.2 -115.19,-98.39 -124.8,-98.4 -134.4,-93.6 -141.6,-91.2 -146.4,-86.4 -307.19,-160.8 -314.4,-143.99 -156,-62.4 -153.59,-57.6 -151.21,-52.8 -143.99,-45.603 -108,-31.199 -120,-28.797 -124.8,-28.801 -132,-28.8 -280.79,-50.399 -290.4,-43.203 -144,-16.797 -144,-16.801 -139.2,-14.398 -134.4,-12 -129.59,-7.199 -122.4,-4.801 -112.8,-2.398 h -103.2 l -213.6,7.199 -199.19,9.597 -189.6,16.801 -180,26.399 -175.2,36 -175.2,48 -175.2,62.398 -180,79.199 -69.59,33.603 -62.4,43.2 -52.8,50.4 -45.6,55.2 -36,64.8 -24,69.59 -16.8,74.4 -2.4,76.8 h 21.6 l 4.8,-2.4 7.2,-9.6 4.8,-14.4 2.4,-14.4 9.6,-36 7.2,-31.2 24,-60 31.2,-64.79 12,-28.8 12,-21.6 7.2,-16.8 2.39,-4.8 2.41,4.8 9.59,16.8 14.41,23.99 16.8,31.21 40.79,69.6 43.2,69.59 31.21,45.6 35.99,48 38.41,45.6 43.19,48 93.61,91.2 100.79,86.4 103.2,84 103.2,72 100.8,64.8 91.2,52.79 9.6,4.8 16.8,9.61 26.4,12 33.6,16.8 84,40.79 96,43.2 98.39,45.6 91.2,36 38.4,16.8 36,9.6 26.4,7.21 19.2,2.39 16.8,-2.39 16.8,-2.41 14.4,-4.8 16.8,-4.8 14.4,-4.8 16.8,-9.6 21.6,-9.59 26.4,-14.41 28.8,-14.4 31.2,-16.8 33.6,-16.8 38.4,-19.2 79.2,-43.2 86.4,-45.6 88.8,-50.4 91.2,-50.39 88.79,-48 86.41,-48 79.19,-45.61 72,-40.79 60,-36 48,-28.8 33.6,-19.2 14.4,-12 40.8,-48 33.6,-36 16.8,-16.8 24,-12 24,-9.6 33.6,-9.6 43.2,-4.8 45.6,2.4 45.6,7.2 43.2,16.8 38.4,24 28.8,33.6 14.39,38.4 2.41,48 -9.6,38.4 -16.8,36 -24,31.2 -26.4,28.8 -33.6,24 -36,21.6 -36,14.39 -38.4,9.61 -38.4,7.19 -33.6,2.41 -31.2,2.4 -26.4,2.39 -24,4.8 -21.6,9.61 -24,12 -24,19.2 -45.6,45.59 -40.8,40.8 -21.6,16.8 -21.6,7.2 -26.4,-2.39 -26.4,-12 -12,-12 -7.2,-12 -4.79,-14.41 4.79,-14.4 4.8,-4.8 14.4,-7.2 16.8,-9.6 19.2,-9.59 45.6,-21.61 36,-24 14.4,-12 12,-14.39 12,-14.4 14.4,-12 14.4,-7.2 14.4,-7.2 19.2,-2.4 16.8,-4.8 88.8,-9.61 69.6,-11.99 31.2,-12 28.8,-14.4 26.4,-21.6 26.4,-31.2 26.4,-50.4 9.6,-48 -7.2,-24 -12,-19.2 -19.2,-14.4 -28.8,-12 -40.8,-2.4 -40.8,9.6 -40.8,16.8 -33.6,24 -24,24 -24,31.2 -21.6,31.2 -26.4,28.8 -24,24 -36,26.4 -40.8,26.4 -40.8,24 -146.39,88.8 -153.61,91.19 -74.39,43.2 -72,40.8 -69.6,38.4 -62.4,33.6 -33.6,16.8 -33.6,14.4 -36,16.8 -33.6,16.81 -38.4,19.19 -52.8,26.4 -62.4,33.6 -74.4,38.4 -81.6,45.6 -91.19,50.4 -96.01,52.8 -103.19,57.6 -213.6,120 -220.8,122.4 -108,60 -105.6,60 -100.8,57.59 -95.99,52.8 -134.41,74.4 -134.39,74.41 -129.6,74.39 -122.4,72 -26.4,16.8 -19.2,16.8 -14.4,19.2 -9.6,19.2 -14.4,48 -12,62.4 -4.8,31.2 v 38.4 36 l 4.8,21.6 12,21.6 14.4,21.6 12,19.2 12,19.2 2.4,12 -2.4,9.6 -9.6,9.6 -16.8,7.2 -14.4,4.8 -14.4,-2.4 -12,-2.4 -12,-9.6 -19.2,-24 -14.4,-31.2 -9.6,-36 -7.2,-38.4 -4.8,-31.2 v -26.4 l 7.2,-57.6 14.4,-60 24,-62.4 28.8,-62.4 36,-60 38.4,-57.6 43.2,-50.4 43.2,-43.2 7.2,-7.2 7.2,-4.8 7.2,-4.79 9.6,-4.81 40.8,-14.4 38.4,-12 14.4,-7.2 7.2,-9.59 2.4,-12.01 -4.8,-16.79 -21.6,-31.2 -36,-36 -43.2,-40.8 -48,-38.4 -50.4,-38.4 -45.6,-33.6 -38.4,-26.4 -28.8,-19.2 -31.2,-16.8 -21.6,-4.8 -16.8,12 -21.6,31.2 -28.8,52.8 -31.2,62.4 -31.2,74.39 -33.6,81.61 -67.2,177.59 -64.8,182.4 -31.19,86.4 -28.81,84 -26.39,76.8 -21.61,67.2 -19.19,55.2 -14.4,43.2 -7.2,16.8 -4.81,12 -2.4,7.2 -2.39,2.4 -24,2.4 h -26.41 l -21.59,-2.4 h -7.2 v -28.8 -9.6 l 2.4,-12 2.4,-14.4 4.8,-19.2 11.99,-43.2 16.81,-55.2 19.19,-60 21.61,-67.2 24,-69.6 24,-74.4 52.8,-144 50.39,-136.8 24.01,-60 21.59,-50.4 19.2,-43.19 14.4,-31.2 31.2,-57.61 33.6,-57.59 12,-24 12.01,-19.2 7.19,-12 2.4,-4.8 -4.8,-2.41 -9.6,-9.59 -16.8,-12 -19.2,-12 -40.8,-26.4 -33.6,-12 -28.79,4.8 -26.41,12 -21.59,16.8 -19.2,19.2 -7.2,9.6 -9.6,19.2 -14.41,28.8 -16.8,33.6 -38.4,83.99 -45.59,96 -43.2,98.4 -40.8,91.2 -16.8,40.8 -14.4,36 -12,26.4 -7.2,21.6 -12,40.8 -16.8,48 -16.8,55.2 -19.2,60 -43.2,127.2 -48,129.6 -21.6,62.39 -24,57.61 -21.6,52.79 -21.6,45.6 -21.6,38.4 -16.8,28.8 -16.8,19.2 -14.4,4.8 -21.6,-2.4 -12,-7.2 -7.2,-9.6 v -14.39 l 2.4,-9.61 2.4,-12 2.4,-14.39 4.8,-16.8 14.4,-43.2 16.8,-50.41 19.2,-55.2 21.6,-62.39 21.6,-64.8 24,-64.8 45.6,-127.2 40.8,-110.4 16.8,-43.2 12,-33.6 9.6,-21.6 2.4,-9.6 48,-110.4 45.6,-105.6 19.2,-43.19 16.8,-36 9.6,-24 4.8,-7.21 h -4.8 l -9.6,-2.4 -16.8,-2.39 -16.8,-2.41 -40.8,-4.79 h -31.2 l -21.6,7.2 -21.6,9.6 -21.6,19.2 -21.6,21.59 -40.8,55.2 -38.4,72 -38.4,81.6 -36,93.6 -33.6,98.4 -31.2,100.8 -28.798,103.2 -26.399,98.4 -24,93.6 -21.601,86.4 -16.801,76.8 -14.398,60 -7.203,23.99 -4.797,21.6 -4.801,14.4 -2.399,9.6 -2.398,7.2 -4.801,4.8 -7.203,4.8 -7.199,4.81 -23.996,2.39 h -26.403 l -19.199,-2.39 h -9.597 v -4.81 l 2.398,-9.6 v -12 l 2.398,-16.79 2.403,-14.41 2.398,-19.2 7.199,-24 7.2,-28.8 16.8,-67.2 21.602,-74.39 21.598,-74.4 21.601,-69.6 9.598,-28.8 9.601,-26.4 7.2,-21.6 7.199,-14.4 33.601,-81.6 33.598,-91.2 16.801,-43.2 12,-36 7.199,-26.4 2.399,-16.8 -4.801,-14.4 -9.598,-12 -16.801,-2.4 -19.199,7.2 -2.398,2.4 -4.801,7.2 -4.797,7.2 -7.203,16.8 -7.199,16.8 -12,28.8 -16.801,38.4 -21.598,48 -48,110.4 -52.801,129.6 -52.796,136.8 -48,131.99 -19.204,62.4 -16.796,60 -9.602,50.4 -7.199,45.6 v 43.2 l 7.199,45.6 16.801,40.8 19.199,43.2 55.199,84 62.399,88.8 55.199,74.4 64.801,84 69.597,88.8 74.4,93.6 156,189.6 151.2,184.79 12,14.4 2.4,9.6 -2.4,9.6 -9.6,12 -9.6,9.6 -7.2,12 -7.2,9.6 -4.8,12 -50.4,96 -60,112.8 -62.4,117.6 -60,117.6 -28.8,55.2 -28.8,55.2 -26.4,52.79 -23.997,45.61 -21.602,43.2 -16.797,38.39 -14.402,28.8 -9.598,24 -7.203,9.6 -7.199,9.6 -9.602,7.2 -9.597,4.8 -24,2.4 h -26.399 l -19.199,-2.4 h -9.602 v -4.8 -12 -16.8 -16.8 l 4.801,-14.4 12,-19.2 12,-19.2 16.801,-16.8 2.398,-4.8 4.801,-7.2 7.196,-9.6 7.203,-14.4 21.597,-33.6 24.004,-45.6 28.797,-52.8 31.199,-57.59 33.6,-62.41 33.6,-64.79 64.8,-129.6 60,-117.6 24,-48 19.2,-40.8 14.4,-31.2 7.2,-19.2 v -19.2 l -14.4,-28.8 -19.2,-33.6 -26.4,-36 -57.6,-74.4 -48,-64.79 -12,-16.81 -14.4,-21.59 -16.8,-21.6 -19.2,-26.4 -45.597,-60 -52.8,-64.8 -110.399,-136.8 -108,-129.6 -38.398,-48 -40.801,-55.2 -16.801,-28.8 -16.797,-24 -9.601,-19.2 -7.199,-14.4 -7.2,-28.8 -9.601,-33.6 -12,-28.8 -12,-24 -9.602,-12 -7.199,-12 -7.199,-7.2 -2.399,-2.4 -2.398,2.4 -9.602,4.8 -14.402,7.2 -16.797,9.6 -48,26.4 -52.801,31.2 -55.199,31.2 -52.801,31.2 -21.597,14.4 -19.2,12 -16.8,12 -9.598,7.2 -4.801,9.6 -4.801,7.2 -4.8,7.2 -4.797,7.2 -21.602,52.8 -9.601,55.2 2.402,55.2 9.598,50.4 21.597,50.4 31.203,45.6 38.399,38.4 48,31.2 -2.399,7.19 -4.8,4.81 -9.602,7.19 -12,7.2 -24,4.81 -28.801,-4.81 -28.797,-9.59 -28.8,-14.4 -28.797,-16.8 -24.0002,-19.2 -21.6015,-19.2 -14.3985,-16.8 -21.6015,-38.4 -16.7969,-38.4 -9.60159,-38.4 v -40.8 l 4.79688,-55.2 9.60161,-45.6 9.6015,-40.8 12,-38.4 16.7969,-33.6 19.2031,-33.6 23.9961,-33.6 31.2031,-36 40.797,-40.8 45.601,-40.8 45.598,-38.4 38.402,-28.8 71.997,-40.8 76.8,-38.4 36,-16.8 31.2,-16.79 24,-12.01 14.398,-12 4.801,-7.2 7.203,-12 9.598,-19.2 12,-24 28.796,-62.39 31.204,-72 31.199,-79.2 31.199,-76.8 26.398,-69.6 19.204,-55.2 2.398,-9.6 4.801,-12 7.199,-16.8 7.199,-19.2 16.801,-43.2 21.598,-48 24,-48 24,-43.2 26.398,-36 24,-21.6 24.004,-7.2 35.996,-7.2 33.599,-4.8 24,-7.2 7.2,-7.2 7.2,-16.8 12,-24 14.4,-26.4 28.8,-62.39 31.2,-55.2 33.6,-45.6 43.2,-38.4 48,-28.8 50.4,-12 45.6,4.8 38.4,12 36,7.2 33.6,-4.8 2.4,-2.4 4.8,-7.21 4.8,-9.59 7.2,-14.41 16.8,-31.2 16.79,-38.39 19.21,-40.8 19.2,-38.4 16.8,-33.6 14.39,-24 16.81,-14.4 26.39,-16.8 33.61,-12 38.39,-12 38.41,-4.8 40.79,2.4 38.4,9.6 31.2,19.2 12,14.4 12,14.4 9.6,12 9.6,7.2 12,-4.8 16.8,-12 21.6,-14.4 21.6,-9.6 21.6,-2.4 h 21.6 l 26.4,7.2 26.4,7.2 48,24 38.4,21.6 12,9.6 21.6,14.4 26.4,19.2 31.2,23.99 31.2,24.01 28.8,23.99 21.6,21.61 16.8,16.8 19.2,26.4 16.8,19.19 9.6,4.81 9.6,2.39 7.2,-4.79 9.6,-9.6 4.8,-9.6 2.4,-14.4 4.8,-16.81 2.39,-23.99 7.21,-48.01 9.6,-45.59 12,-38.41 16.8,-38.39 19.2,-33.6 24,-33.6 28.8,-28.8 28.79,-26.4 33.6,-21.6 33.61,-16.8 50.39,-19.2 55.2,-14.4 26.4,-4.8 h 26.4 l 24,2.4 19.2,9.6 14.4,12 14.4,16.8 12,16.8 7.2,14.4 v 16.8 21.6 l -2.39,28.8 -4.81,31.2 -2.4,31.2 -2.4,26.4 -2.4,21.6 2.4,12 4.8,7.2 7.2,4.79 h 7.2 12 l 9.6,-2.39 16.8,-7.2 21.6,-12 26.4,-12 62.4,-31.2 69.6,-36 67.2,-36 57.6,-31.2 24,-14.4 16.8,-12 12,-7.2 4.8,-4.8 2.4,-12 -2.4,-9.6 -9.6,-7.2 -12,-12 -19.2,-14.4 -28.8,-16.8 -36,-16.8 -38.4,-21.6 -86.4,-43.2 -81.6,-40.8 -69.6,-38.4 -72,-48 -74.4,-52.8 -74.39,-60 -74.41,-60 -69.59,-64.79 -62.4,-62.41 -55.2,-59.99 -45.6,-52.8 -40.8,-52.8 -36,-52.8 -31.2,-52.8 -28.8,-55.2 -21.6,-55.2 -14.4,-55.2 -9.6,-60 -2.4,-19.2 v -24 l -2.4,-28.8 v -36 -76.79 l 2.4,-91.2 4.8,-189.6 7.2,-170.398 4.8,-43.203 7.2,-38.399 9.6,-31.199 16.8,-28.801 19.2,-26.398 21.6,-26.398 28.8,-28.801 33.6,-31.199 60,-50.403 67.2,-48 74.39,-47.996 79.2,-43.203 175.2,-81.598 180,-72 88.8,-31.195 86.4,-26.402 84,-26.399 76.8,-21.601 72,-16.797 62.39,-14.4025 52.8,-12 43.21,-7.1992 153.6,-21.6016 155.99,-16.7969 151.2,-14.4023 146.4,-9.6016 h 28.8 l 38.4,-2.3984 48,2.3984 h 57.6 l 127.2,4.8047 141.59,4.7969 144,4.8008 132,7.1992 57.6,4.8008 50.4,2.3984 43.2,4.8008 33.6,2.3984 163.2,19.1993 158.4,21.6015 153.6,26.4023 151.19,28.797 290.4,64.801 283.2,79.199 273.59,95.996 271.2,110.398 134.4,62.403 136.8,69.601 136.8,71.996 136.79,76.797 139.2,86.403 141.6,100.8 141.6,115.2 136.8,127.2 129.6,136.8 120,143.99 103.19,151.2 86.4,158.4 9.61,21.6 11.99,28.8 14.4,31.19 14.4,33.61 28.8,76.8 31.2,81.59 28.8,79.2 24,69.6 12,31.2 7.2,26.4 7.2,21.6 2.4,16.8 4.8,24 4.8,33.6 2.4,36 4.8,43.2 2.4,96 v 105.6 l -7.2,105.6 -16.8,96 -9.6,43.2 -14.4,38.4 -16.8,33.6 -19.2,26.39 -103.2,88.8 -108,76.8 -112.8,60 -117.59,48 -62.4,19.2 -62.4,14.4 -62.4,12 -64.8,7.2 -64.8,2.4 h -67.2 l -67.2,-2.4 -67.2,-7.2 v 45.6 l 995.99,1036.79 110.4,-4.8 16.8,-2.4 h 14.4 14.4 l 16.8,2.4 26.4,4.8 26.4,2.4 26.4,4.8 24,7.2 36,16.8 36,16.8 31.2,9.6 28.8,-4.8 14.4,-12 14.4,-19.2 14.4,-24 16.8,-19.2 26.39,-24 31.21,-16.8 31.2,-12 33.6,-7.2 h 35.99 l 33.61,2.4 31.2,9.6 28.8,14.4 52.8,36 50.39,50.4 21.6,26.4 16.8,31.2 12,28.8 7.2,31.2 2.4,31.2 v 31.2 12 l -2.4,12 v 7.2 2.4 h 4.8 l 12,2.4 h 16.8 l 14.4,-2.4 7.2,-9.6 9.6,-19.2 12,-21.6 9.6,-19.2 16.8,-21.6 24,-19.2 28.8,-14.4 28.8,-12 31.2,-9.6 31.2,-4.8 h 26.4 l 21.6,2.4 43.2,19.2 40.8,28.8 36,43.2 31.2,48 26.4,52.8 21.6,55.2 14.4,55.2 9.6,52.8 2.4,9.6 v 12 9.6 l -2.4,11.99 -12,55.2 -14.4,60 -4.8,28.8 -4.8,21.6 -2.4,16.8 v 9.6 l 7.2,9.6 14.4,7.2 19.2,12 19.2,14.4 55.19,62.4 45.58,79.2 16.8,40.8 12,36 9.6,31.2 2.4,19.2 -4.8,24 -12,31.2 -16.8,36 -21.6,38.4 -23.97,38.4 -24,36 -26.4,33.6 -26.4,26.4 -24,21.6 -21.6,19.2 -19.2,16.8 -16.8,14.4 -31.2,21.6 -19.2,19.19 -9.6,16.81 v 14.4 l 14.4,21.59 24,24 14.4,12.01 14.4,16.8 21.6,19.2 21.6,21.59 52.8,55.21 62.37,62.39 67.2,69.61 74.4,76.79 76.8,79.2 76.8,81.6 79.2,79.2 74.4,79.2 69.6,74.4 64.8,69.6 28.8,31.2 28.8,28.8 24,26.4 21.6,24 19.2,21.6 14.4,16.8 12,14.4 9.6,9.59 16.8,21.61 12,19.19 9.6,19.21 2.4,16.79 -2.4,21.6 -4.8,21.6 -9.6,26.4 -14.4,31.21 -12,23.99 -19.2,31.2 -21.6,33.6 -24,36 -28.8,36 -26.4,31.2 -26.4,28.8 -24,19.2 -33.6,24 -50.4,33.6 -24,16.8 -24,12 -16.8,4.8 h -9.6 l -7.2,-16.8 4.8,-19.2 14.4,-19.2 19.2,-21.6 45.6,-40.8 40.8,-36 33.6,-43.2 31.2,-43.2 12,-19.19 9.6,-14.41 7.2,-9.6 2.4,-4.8 -2.4,-2.4 -7.2,-7.2 -9.6,-12 -14.4,-16.8 -19.2,-19.2 -19.2,-21.59 -24,-26.41 -26.4,-31.2 -62.4,-64.8 -67.2,-74.4 -72,-79.19 -76.8,-84 -74.4,-81.6 -76.8,-81.6 -69.6,-76.8 -64.77,-69.6 -31.2,-31.2 -26.4,-31.2 -26.4,-24 -21.6,-24 -19.2,-19.2 -14.4,-14.4 -12,-11.99 -7.2,-7.21 -21.6,-16.8 -16.8,-14.4 -14.4,-9.59 -4.8,-4.81 v 4.81 l -2.4,14.39 -2.4,21.6 -4.8,28.8 -9.6,74.4 -12,81.6 -12,86.4 -9.6,74.4 -4.8,28.8 -4.8,26.4 -4.8,16.8 -2.4,7.2 -4.8,4.8 v 2.4 l -2.4,4.8 -2.4,9.6 z m 242.4,-1413.59 -7.2,-2.4 h -16.8 l -9.6,2.4 -24,7.2 -33.6,19.2 -36,21.6 -31.2,24.01 -43.2,35.99 -43.2,31.2 -43.2,33.6 -43.2,36 -19.2,16.8 -28.8,24 -31.2,31.2 -38.4,38.4 -84,86.4 -91.2,100.8 -88.79,105.6 -79.2,107.99 -31.21,52.8 -26.39,50.41 -19.2,45.59 -12,43.2 v 33.6 l 7.2,43.2 9.6,19.2 9.6,19.2 14.4,14.4 16.79,9.6 12.01,2.4 9.6,-4.8 9.6,-7.2 9.6,-9.6 14.4,-26.39 16.79,-24.01 14.41,-16.8 14.39,-12 16.81,-12 14.4,-12 7.2,-9.6 7.2,-16.8 12,-21.6 12,-26.4 26.39,-57.6 24,-55.19 24,-48 28.8,-43.2 31.2,-36 38.4,-31.2 40.8,-26.41 43.2,-19.19 48,-9.6 50.4,-2.4 h 12 l 14.4,2.4 12,2.4 12,2.4 38.4,12 26.4,7.2 24,-2.4 28.8,-14.4 36,-28.8 38.4,-36 40.8,-40.8 40.8,-48 33.6,-50.4 26.4,-52.8 14.4,-52.8 2.39,-52.8 -9.59,-38.4 -14.4,-36 -21.6,-36 -24,-31.2 -7.2,-9.6 -9.6,-9.6 -7.2,-7.2 z m -1000.79,537.6 -2.4,14.4 2.4,21.6 4.8,26.39 7.2,19.21 4.8,12 7.2,7.2 7.2,4.8 7.2,4.79 9.6,2.41 h 16.8 l 19.2,-2.41 h 21.6 l 43.2,-4.79 24,-7.2 9.6,-7.21 14.4,-16.79 16.79,-21.6 21.61,-26.4 43.19,-62.4 43.2,-60 19.2,-24 21.6,-26.4 26.4,-28.8 28.8,-31.2 64.8,-64.8 69.6,-62.4 69.6,-62.4 64.8,-52.8 31.2,-24 26.4,-19.2 24,-16.8 19.2,-12 38.4,-19.2 36,-19.2 26.4,-16.8 16.8,-14.4 12,-26.4 9.6,-40.79 4.8,-50.41 2.4,-57.59 v -60 l -2.4,-60 -4.8,-55.2 -7.2,-45.6 -14.4,-50.4 -19.2,-43.2 -24,-33.6 -26.4,-24 -33.6,-14.4 h -33.6 l -38.4,9.6 -38.4,26.4 -16.8,14.4 -19.2,24 -24,28.8 -24,31.2 -52.8,76.8 -55.19,84 -50.41,84 -45.59,74.39 -19.2,31.2 -16.8,26.41 -12,21.59 -7.2,12 -98.41,163.2 -95.99,163.2 -45.6,79.2 -40.8,74.4 -36,67.2 z m -252,-1187.99 98.4,96 12,12 9.6,7.2 4.8,2.4 h 4.8 l 14.4,-4.8 16.8,-12 16.8,-16.8 16.8,-19.2 14.4,-21.6 9.6,-19.2 4.8,-19.2 -2.4,-16.8 -9.6,-12 -19.2,-9.6 -24,-9.6 -28.8,-4.8 -28.8,-4.8 -26.4,-4.8 -24,-2.4 -16.8,-2.4 -26.4,-2.4 h -26.4 l -9.6,2.4 -7.2,7.2 -2.4,9.6 2.4,14.4 2.4,4.8 4.8,4.8 7.2,9.6 z M 2785.2,2816.26 l 9.6,-266.4 h -81.6 l -28.79,7.2 -26.41,9.6 -21.59,16.8 -21.61,19.2 -33.59,48 -26.41,55.2 -28.8,79.19 -23.99,74.41 -9.6,31.2 -4.8,28.8 -2.4,19.2 2.4,14.39 4.8,4.81 h 7.2 9.6 l 12,-4.81 31.2,-14.39 38.39,-19.2 43.2,-21.6 45.61,-24 40.8,-21.6 33.59,-19.21 21.61,-11.99 z"
         style="fill:#8c0000;stroke:#0b0c0b;stroke-width:2.3980999;stroke-linecap:butt;stroke-linejoin:miter;stroke-miterlimit:2.61310005;stroke-dasharray:none;stroke-opacity:1;fill-opacity:1"
         id="path24"
         inkscape:connector-curvature="0" /><path
         d="m 2053.21,5336.23 v 552 h -165.6 v 112.79 h 446.4 v -112.79 h -168 v -552 h -112.8"
         style="fill:#8c0000;fill-opacity:1;fill-rule:evenodd;stroke:none"
         id="path26"
         inkscape:connector-curvature="0" /><path
         d="m 2053.21,5336.23 v 552 h -165.6 v 112.79 h 446.4 v -112.79 h -168 v -552 z"
         style="fill:#8c0000;stroke:#0b0c0b;stroke-width:2.3980999;stroke-linecap:butt;stroke-linejoin:miter;stroke-miterlimit:2.61310005;stroke-dasharray:none;stroke-opacity:1;fill-opacity:1"
         id="path28"
         inkscape:connector-curvature="0" /><path
         d="m 2912.4,5336.23 h -124.8 l -47.99,151.2 H 2514 l -45.59,-151.2 h -122.4 l 218.4,664.79 h 122.39 z m -208.79,264 -79.21,244.79 -76.79,-244.79 z"
         style="fill:#8c0000;fill-opacity:1;fill-rule:evenodd;stroke:none"
         id="path30"
         inkscape:connector-curvature="0" /><path
         d="m 2912.4,5336.23 h -124.8 l -47.99,151.2 H 2514 l -45.59,-151.2 h -122.4 l 218.4,664.79 h 122.39 z m -208.79,264 -79.21,244.79 -76.79,-244.79 z"
         style="fill:#8c0000;stroke:#0b0c0b;stroke-width:2.3980999;stroke-linecap:butt;stroke-linejoin:miter;stroke-miterlimit:2.61310005;stroke-dasharray:none;stroke-opacity:1;fill-opacity:1"
         id="path32"
         inkscape:connector-curvature="0" /><path
         d="m 2970,5336.23 v 664.79 h 170.4 l 103.2,-453.59 98.4,453.59 h 172.8 v -664.79 h -105.6 v 523.2 l -112.8,-523.2 h -108 l -110.4,523.2 -2.4,-523.2 H 2970"
         style="fill:#8c0000;fill-opacity:1;fill-rule:evenodd;stroke:none"
         id="path34"
         inkscape:connector-curvature="0" /><path
         d="m 2970,5336.23 v 664.79 h 170.4 l 103.2,-453.59 98.4,453.59 h 172.8 v -664.79 h -105.6 v 523.2 l -112.8,-523.2 h -108 l -110.4,523.2 -2.4,-523.2 z"
         style="fill:#8c0000;stroke:#0b0c0b;stroke-width:2.3980999;stroke-linecap:butt;stroke-linejoin:miter;stroke-miterlimit:2.61310005;stroke-dasharray:none;stroke-opacity:1;fill-opacity:1"
         id="path36"
         inkscape:connector-curvature="0" /><path
         d="m 3630,6001.02 h 254.39 l 28.8,-2.39 21.6,-2.4 19.2,-2.41 16.8,-4.79 14.4,-7.21 14.4,-7.19 12,-9.61 14.4,-9.59 12,-14.41 9.6,-12 7.2,-16.8 7.2,-19.2 7.2,-19.2 2.4,-19.19 2.4,-21.6 -2.4,-24 -2.4,-21.6 -7.2,-21.61 -9.6,-19.19 -12,-16.81 -12,-16.79 -16.8,-14.4 -16.8,-9.6 24,-9.6 21.6,-14.4 16.8,-16.8 16.8,-19.2 12,-21.6 7.2,-26.4 4.8,-24 2.4,-28.8 v -21.6 l -4.8,-21.6 -4.8,-21.6 -7.2,-21.6 -9.6,-21.6 -12,-16.8 -14.4,-16.8 -14.4,-14.4 -16.8,-12 -16.8,-7.2 -19.2,-7.2 -21.6,-4.8 -19.2,-2.4 h -28.8 -40.8 l -48,-2.4 H 3630 Z m 112.79,-110.39 v -153.6 h 146.4 l 12,2.4 14.4,2.4 12,4.8 9.6,7.2 9.6,7.2 7.2,11.99 4.8,12.01 2.4,14.4 2.4,14.4 v 14.4 l -2.4,14.4 -4.8,12 -7.2,9.59 -9.6,7.21 -9.6,7.2 -12,4.8 -12,4.8 h -12 -21.6 l -28.8,2.4 h -36 z m 0,-264 v -177.6 h 172.8 l 12,2.4 12,4.8 9.6,4.8 9.6,7.2 9.6,9.6 7.2,12 4.8,12 2.4,16.8 v 16.8 14.4 l -2.4,12 -4.8,12 -4.8,12 -7.2,9.6 -7.2,9.6 -9.6,7.2 -9.6,4.8 -16.8,2.4 -21.6,4.8 -28.8,2.4 h -36 -91.2"
         style="fill:#8c0000;fill-opacity:1;fill-rule:evenodd;stroke:none"
         id="path38"
         inkscape:connector-curvature="0" /><path
         d="m 3630,6001.02 h 254.39 l 28.8,-2.39 21.6,-2.4 19.2,-2.41 16.8,-4.79 14.4,-7.21 14.4,-7.19 12,-9.61 14.4,-9.59 12,-14.41 9.6,-12 7.2,-16.8 7.2,-19.2 7.2,-19.2 2.4,-19.19 2.4,-21.6 -2.4,-24 -2.4,-21.6 -7.2,-21.61 -9.6,-19.19 -12,-16.81 -12,-16.79 -16.8,-14.4 -16.8,-9.6 24,-9.6 21.6,-14.4 16.8,-16.8 16.8,-19.2 12,-21.6 7.2,-26.4 4.8,-24 2.4,-28.8 v -21.6 l -4.8,-21.6 -4.8,-21.6 -7.2,-21.6 -9.6,-21.6 -12,-16.8 -14.4,-16.8 -14.4,-14.4 -16.8,-12 -16.8,-7.2 -19.2,-7.2 -21.6,-4.8 -19.2,-2.4 h -28.8 -40.8 l -48,-2.4 H 3630 Z m 112.79,-110.39 v -153.6 h 146.4 l 12,2.4 14.4,2.4 12,4.8 9.6,7.2 9.6,7.2 7.2,11.99 4.8,12.01 2.4,14.4 2.4,14.4 v 14.4 l -2.4,14.4 -4.8,12 -7.2,9.59 -9.6,7.21 -9.6,7.2 -12,4.8 -12,4.8 h -12 -21.6 l -28.8,2.4 h -36 z m 0,-264 v -177.6 h 172.8 l 12,2.4 12,4.8 9.6,4.8 9.6,7.2 9.6,9.6 7.2,12 4.8,12 2.4,16.8 v 16.8 14.4 l -2.4,12 -4.8,12 -4.8,12 -7.2,9.6 -7.2,9.6 -9.6,7.2 -9.6,4.8 -16.8,2.4 -21.6,4.8 -28.8,2.4 h -36 z"
         style="fill:#8c0000;stroke:#0b0c0b;stroke-width:2.3980999;stroke-linecap:butt;stroke-linejoin:miter;stroke-miterlimit:2.61310005;stroke-dasharray:none;stroke-opacity:1;fill-opacity:1"
         id="path40"
         inkscape:connector-curvature="0" /><path
         d="m 4174.79,5662.63 2.4,50.4 2.4,43.2 7.2,40.8 12,38.4 12,24 12,21.6 14.4,24 14.4,21.6 16.8,19.19 19.2,14.41 19.2,14.4 19.2,12 26.4,12 28.8,7.19 31.2,2.41 33.6,2.39 59.99,-4.8 52.81,-16.79 45.59,-28.8 40.8,-40.81 33.61,-50.39 21.6,-57.6 14.4,-67.2 4.79,-76.8 -4.79,-76.8 -14.4,-67.2 -21.6,-57.6 -33.61,-50.4 -38.39,-40.8 -48,-28.8 -52.81,-16.8 -57.59,-4.8 -60,4.8 -52.8,16.8 -48,28.8 -40.8,38.4 -31.2,50.4 -21.6,57.6 -14.4,67.2 -4.8,74.4 z m 115.2,4.8 2.4,-52.8 9.6,-45.6 14.4,-40.8 19.2,-31.2 24,-26.4 26.39,-16.8 28.81,-12 33.6,-2.4 33.6,2.4 28.8,12 24,16.8 24,26.4 19.19,31.2 14.41,40.8 9.59,45.6 2.4,55.2 -2.4,52.8 -7.19,48 -14.4,38.4 -19.21,31.2 -23.99,23.99 -26.4,19.21 -28.8,9.59 -33.6,4.81 -33.6,-4.81 -31.2,-9.59 -26.4,-19.21 -24,-23.99 -19.2,-33.6 -12,-38.4 -9.6,-48 -2.4,-52.8 v 0"
         style="fill:#8c0000;fill-opacity:1;fill-rule:evenodd;stroke:none"
         id="path42"
         inkscape:connector-curvature="0" /><path
         d="m 4174.79,5662.63 2.4,50.4 2.4,43.2 7.2,40.8 12,38.4 12,24 12,21.6 14.4,24 14.4,21.6 16.8,19.19 19.2,14.41 19.2,14.4 19.2,12 26.4,12 28.8,7.19 31.2,2.41 33.6,2.39 59.99,-4.8 52.81,-16.79 45.59,-28.8 40.8,-40.81 33.61,-50.39 21.6,-57.6 14.4,-67.2 4.79,-76.8 -4.79,-76.8 -14.4,-67.2 -21.6,-57.6 -33.61,-50.4 -38.39,-40.8 -48,-28.8 -52.81,-16.8 -57.59,-4.8 -60,4.8 -52.8,16.8 -48,28.8 -40.8,38.4 -31.2,50.4 -21.6,57.6 -14.4,67.2 -4.8,74.4 z m 115.2,4.8 2.4,-52.8 9.6,-45.6 14.4,-40.8 19.2,-31.2 24,-26.4 26.39,-16.8 28.81,-12 33.6,-2.4 33.6,2.4 28.8,12 24,16.8 24,26.4 19.19,31.2 14.41,40.8 9.59,45.6 2.4,55.2 -2.4,52.8 -7.19,48 -14.4,38.4 -19.21,31.2 -23.99,23.99 -26.4,19.21 -28.8,9.59 -33.6,4.81 -33.6,-4.81 -31.2,-9.59 -26.4,-19.21 -24,-23.99 -19.2,-33.6 -12,-38.4 -9.6,-48 -2.4,-52.8 z"
         style="fill:#8c0000;stroke:#0b0c0b;stroke-width:2.3980999;stroke-linecap:butt;stroke-linejoin:miter;stroke-miterlimit:2.61310005;stroke-dasharray:none;stroke-opacity:1;fill-opacity:1"
         id="path44"
         inkscape:connector-curvature="0" /><path
         d="m 4808.38,6001.02 h 112.8 v -398.39 l 2.4,-33.6 v -24 l 2.4,-16.8 4.8,-19.2 7.2,-16.8 12,-14.4 12,-14.4 14.4,-12 16.8,-7.2 21.6,-2.4 21.6,-2.4 21.6,2.4 21.6,2.4 16.8,7.2 14.4,12 9.6,12 9.6,12 4.8,16.8 4.8,16.8 2.4,19.2 v 26.4 l 2.4,31.2 v 36 367.19 h 112.8 v -350.39 -55.2 l -2.4,-48 -2.4,-36 -2.4,-28.8 -7.2,-24 -7.2,-21.6 -9.6,-19.2 -12,-19.2 -14.4,-16.8 -14.4,-14.4 -19.2,-12 -19.2,-12 -21.6,-7.2 -24,-7.2 -28.8,-2.4 -33.6,-2.4 -38.4,2.4 -31.2,2.4 -28.8,7.2 -24,9.6 -19.2,12 -16.8,12 -14.4,16.8 -14.4,16.8 -12,19.2 -7.2,16.8 -7.2,19.2 -4.8,19.2 -4.8,31.2 -4.8,38.4 -2.4,45.6 v 52.79 355.2"
         style="fill:#8c0000;fill-opacity:1;fill-rule:evenodd;stroke:none"
         id="path46"
         inkscape:connector-curvature="0" /><path
         d="m 4808.38,6001.02 h 112.8 v -398.39 l 2.4,-33.6 v -24 l 2.4,-16.8 4.8,-19.2 7.2,-16.8 12,-14.4 12,-14.4 14.4,-12 16.8,-7.2 21.6,-2.4 21.6,-2.4 21.6,2.4 21.6,2.4 16.8,7.2 14.4,12 9.6,12 9.6,12 4.8,16.8 4.8,16.8 2.4,19.2 v 26.4 l 2.4,31.2 v 36 367.19 h 112.8 v -350.39 -55.2 l -2.4,-48 -2.4,-36 -2.4,-28.8 -7.2,-24 -7.2,-21.6 -9.6,-19.2 -12,-19.2 -14.4,-16.8 -14.4,-14.4 -19.2,-12 -19.2,-12 -21.6,-7.2 -24,-7.2 -28.8,-2.4 -33.6,-2.4 -38.4,2.4 -31.2,2.4 -28.8,7.2 -24,9.6 -19.2,12 -16.8,12 -14.4,16.8 -14.4,16.8 -12,19.2 -7.2,16.8 -7.2,19.2 -4.8,19.2 -4.8,31.2 -4.8,38.4 -2.4,45.6 v 52.79 z"
         style="fill:#8c0000;stroke:#0b0c0b;stroke-width:2.3980999;stroke-linecap:butt;stroke-linejoin:miter;stroke-miterlimit:2.61310005;stroke-dasharray:none;stroke-opacity:1;fill-opacity:1"
         id="path48"
         inkscape:connector-curvature="0" /><path
         d="m 5379.58,5336.23 v 664.79 h 237.6 l 40.79,-2.39 36,-2.4 31.21,-7.2 23.99,-7.21 19.2,-9.6 16.8,-14.4 14.4,-16.8 14.4,-21.6 12,-23.99 7.2,-26.4 2.4,-26.4 2.4,-28.8 -2.4,-36 -7.2,-33.6 -9.6,-28.8 -16.8,-24 -21.59,-21.6 -26.41,-19.2 -28.79,-12 -36,-9.6 19.2,-12 16.8,-14.4 14.39,-14.4 12,-14.4 12,-16.8 14.4,-24 16.8,-31.2 19.2,-36 69.6,-129.6 h -136.8 l -81.6,144 -19.2,36 -16.8,26.4 -11.99,21.6 -9.61,14.4 -9.59,9.6 -7.2,7.2 -9.6,7.2 -9.61,4.8 -9.59,2.4 -14.41,2.4 -14.39,2.4 h -19.2 -21.6 v -278.4 z m 112.8,384 h 120 l 28.8,2.4 21.59,2.4 14.4,2.4 9.6,4.8 9.61,4.8 7.19,9.6 4.81,9.6 4.79,9.59 4.8,12.01 2.4,14.4 v 14.4 14.39 l -2.4,14.41 -4.8,12 -7.2,12 -7.2,9.6 -9.59,7.2 -12.01,4.8 -14.4,4.79 -9.59,2.41 h -16.8 -24 -31.2 -88.8 v -168"
         style="fill:#8c0000;fill-opacity:1;fill-rule:evenodd;stroke:none"
         id="path50"
         inkscape:connector-curvature="0" /><path
         d="m 5379.58,5336.23 v 664.79 h 237.6 l 40.79,-2.39 36,-2.4 31.21,-7.2 23.99,-7.21 19.2,-9.6 16.8,-14.4 14.4,-16.8 14.4,-21.6 12,-23.99 7.2,-26.4 2.4,-26.4 2.4,-28.8 -2.4,-36 -7.2,-33.6 -9.6,-28.8 -16.8,-24 -21.59,-21.6 -26.41,-19.2 -28.79,-12 -36,-9.6 19.2,-12 16.8,-14.4 14.39,-14.4 12,-14.4 12,-16.8 14.4,-24 16.8,-31.2 19.2,-36 69.6,-129.6 h -136.8 l -81.6,144 -19.2,36 -16.8,26.4 -11.99,21.6 -9.61,14.4 -9.59,9.6 -7.2,7.2 -9.6,7.2 -9.61,4.8 -9.59,2.4 -14.41,2.4 -14.39,2.4 h -19.2 -21.6 v -278.4 z m 112.8,384 h 120 l 28.8,2.4 21.59,2.4 14.4,2.4 9.6,4.8 9.61,4.8 7.19,9.6 4.81,9.6 4.79,9.59 4.8,12.01 2.4,14.4 v 14.4 14.39 l -2.4,14.41 -4.8,12 -7.2,12 -7.2,9.6 -9.59,7.2 -12.01,4.8 -14.4,4.79 -9.59,2.41 h -16.8 -24 -31.2 -88.8 z"
         style="fill:#8c0000;stroke:#0b0c0b;stroke-width:2.3980999;stroke-linecap:butt;stroke-linejoin:miter;stroke-miterlimit:2.61310005;stroke-dasharray:none;stroke-opacity:1;fill-opacity:1"
         id="path52"
         inkscape:connector-curvature="0" /><path
         d="m 5945.97,5336.23 v 664.79 h 417.6 v -112.79 h -302.4 v -146.4 h 280.79 v -112.8 h -280.79 v -180 h 314.39 v -112.8 h -429.59"
         style="fill:#8c0000;fill-opacity:1;fill-rule:evenodd;stroke:none"
         id="path54"
         inkscape:connector-curvature="0" /><path
         d="m 5945.97,5336.23 v 664.79 h 417.6 v -112.79 h -302.4 v -146.4 h 280.79 v -112.8 h -280.79 v -180 h 314.39 v -112.8 z"
         style="fill:#8c0000;stroke:#0b0c0b;stroke-width:2.3980999;stroke-linecap:butt;stroke-linejoin:miter;stroke-miterlimit:2.61310005;stroke-dasharray:none;stroke-opacity:1;fill-opacity:1"
         id="path56"
         inkscape:connector-curvature="0" /><path
         d="m 6471.56,5336.23 v 664.79 h 112.8 l 230.4,-443.99 v 443.99 h 105.6 v -664.79 h -115.2 l -228,434.4 v -434.4 h -105.6"
         style="fill:#8c0000;fill-opacity:1;fill-rule:evenodd;stroke:none"
         id="path58"
         inkscape:connector-curvature="0" /><path
         d="m 6471.56,5336.23 v 664.79 h 112.8 l 230.4,-443.99 v 443.99 h 105.6 v -664.79 h -115.2 l -228,434.4 v -434.4 z"
         style="fill:#8c0000;stroke:#0b0c0b;stroke-width:2.3980999;stroke-linecap:butt;stroke-linejoin:miter;stroke-miterlimit:2.61310005;stroke-dasharray:none;stroke-opacity:1;fill-opacity:1"
         id="path60"
         inkscape:connector-curvature="0" /><path
         d="m 4409.99,4261.04 h -122.4 l -48,151.2 h -223.2 l -45.6,-151.2 h -120 l 216,664.8 h 120 z m -206.4,264 -76.8,244.8 -76.8,-244.8 z"
         style="fill:#8c0000;fill-opacity:1;fill-rule:evenodd;stroke:none"
         id="path62"
         inkscape:connector-curvature="0" /><path
         d="m 4409.99,4261.04 h -122.4 l -48,151.2 h -223.2 l -45.6,-151.2 h -120 l 216,664.8 h 120 z m -206.4,264 -76.8,244.8 -76.8,-244.8 z"
         style="fill:#8c0000;stroke:#0b0c0b;stroke-width:2.3980999;stroke-linecap:butt;stroke-linejoin:miter;stroke-miterlimit:2.61310005;stroke-dasharray:none;stroke-opacity:1;fill-opacity:1"
         id="path64"
         inkscape:connector-curvature="0" /><path
         d="m 4469.98,4261.04 v 664.8 h 235.2 l 40.8,-2.41 36,-2.39 28.8,-7.2 24,-7.2 19.2,-9.6 16.8,-14.4 16.8,-19.2 12,-19.2 12,-24.01 7.2,-26.39 2.4,-26.4 2.4,-28.8 -2.4,-36 -7.2,-33.6 -9.6,-28.8 -16.8,-24 -19.2,-21.6 -26.4,-19.2 -28.8,-12 -36,-9.6 16.8,-12 16.8,-14.4 14.4,-14.4 12,-14.4 14.4,-16.8 14.4,-24 16.8,-31.2 19.2,-36 67.2,-129.6 h -134.4 l -79.19,144 -19.21,36 -16.8,26.4 -14.4,21.6 -9.6,14.4 -7.2,9.6 -9.59,7.2 -7.2,7.2 -9.61,4.8 -9.6,2.4 -14.4,2.4 -14.39,2.4 h -19.21 -21.59 v -278.4 z m 112.81,384 h 119.99 l 28.8,2.4 21.6,2.4 12,2.4 9.6,4.8 9.6,4.8 7.2,9.6 4.8,9.6 4.8,9.6 4.8,12 2.4,14.4 v 14.4 14.4 l -2.4,14.4 -4.8,12 -7.2,11.99 -7.2,9.61 -9.6,7.2 -12,4.8 -14.4,4.8 -9.6,2.4 h -16.8 -23.99 -31.21 -86.39 v -168"
         style="fill:#8c0000;fill-opacity:1;fill-rule:evenodd;stroke:none"
         id="path66"
         inkscape:connector-curvature="0" /><path
         d="m 4469.98,4261.04 v 664.8 h 235.2 l 40.8,-2.41 36,-2.39 28.8,-7.2 24,-7.2 19.2,-9.6 16.8,-14.4 16.8,-19.2 12,-19.2 12,-24.01 7.2,-26.39 2.4,-26.4 2.4,-28.8 -2.4,-36 -7.2,-33.6 -9.6,-28.8 -16.8,-24 -19.2,-21.6 -26.4,-19.2 -28.8,-12 -36,-9.6 16.8,-12 16.8,-14.4 14.4,-14.4 12,-14.4 14.4,-16.8 14.4,-24 16.8,-31.2 19.2,-36 67.2,-129.6 h -134.4 l -79.19,144 -19.21,36 -16.8,26.4 -14.4,21.6 -9.6,14.4 -7.2,9.6 -9.59,7.2 -7.2,7.2 -9.61,4.8 -9.6,2.4 -14.4,2.4 -14.39,2.4 h -19.21 -21.59 v -278.4 z m 112.81,384 h 119.99 l 28.8,2.4 21.6,2.4 12,2.4 9.6,4.8 9.6,4.8 7.2,9.6 4.8,9.6 4.8,9.6 4.8,12 2.4,14.4 v 14.4 14.4 l -2.4,14.4 -4.8,12 -7.2,11.99 -7.2,9.61 -9.6,7.2 -12,4.8 -14.4,4.8 -9.6,2.4 h -16.8 -23.99 -31.21 -86.39 z"
         style="fill:#8c0000;stroke:#0b0c0b;stroke-width:2.3980999;stroke-linecap:butt;stroke-linejoin:miter;stroke-miterlimit:2.61310005;stroke-dasharray:none;stroke-opacity:1;fill-opacity:1"
         id="path68"
         inkscape:connector-curvature="0" /><path
         d="m 5156.38,4261.04 v 552 h -165.6 v 112.8 h 441.6 v -112.8 h -163.2 v -552 h -112.8"
         style="fill:#8c0000;fill-opacity:1;fill-rule:evenodd;stroke:none"
         id="path70"
         inkscape:connector-curvature="0" /><path
         d="m 5156.38,4261.04 v 552 h -165.6 v 112.8 h 441.6 v -112.8 h -163.2 v -552 z"
         style="fill:#8c0000;stroke:#0b0c0b;stroke-width:2.3980999;stroke-linecap:butt;stroke-linejoin:miter;stroke-miterlimit:2.61310005;stroke-dasharray:none;stroke-opacity:1;fill-opacity:1"
         id="path72"
         inkscape:connector-curvature="0" /><path
         d="m 5506.78,4261.04 v 664.8 h 112.79 v -261.6 h 220.8 v 261.6 h 112.8 v -664.8 h -112.8 v 290.4 h -220.8 v -290.4 h -112.79"
         style="fill:#8c0000;fill-opacity:1;fill-rule:evenodd;stroke:none"
         id="path74"
         inkscape:connector-curvature="0" /><path
         d="m 5506.78,4261.04 v 664.8 h 112.79 v -261.6 h 220.8 v 261.6 h 112.8 v -664.8 h -112.8 v 290.4 h -220.8 v -290.4 z"
         style="fill:#8c0000;stroke:#0b0c0b;stroke-width:2.3980999;stroke-linecap:butt;stroke-linejoin:miter;stroke-miterlimit:2.61310005;stroke-dasharray:none;stroke-opacity:1;fill-opacity:1"
         id="path76"
         inkscape:connector-curvature="0" /><path
         d="m 3651.59,3461.85 v 112.8 h 242.4 v -264 l -19.2,-21.6 -24,-19.2 -28.8,-16.8 -31.2,-14.4 -33.6,-14.4 -33.6,-9.6 -36,-4.79 -33.59,-2.41 -43.2,2.41 -40.8,7.19 -36,14.4 -33.6,19.2 -31.2,24 -26.4,28.8 -21.6,33.6 -19.2,38.4 -14.4,43.2 -9.6,43.2 -7.2,45.6 -2.41,45.6 2.41,50.4 7.2,48 9.6,43.2 16.79,43.2 21.61,38.4 24,31.2 28.8,28.8 33.59,24 28.81,14.39 31.19,12 36,4.81 38.41,2.39 50.4,-2.39 43.19,-9.6 38.4,-16.8 33.6,-21.6 26.4,-28.81 21.6,-33.59 16.8,-38.4 12,-43.2 -112.8,-26.4 -7.2,24 -12,21.6 -11.99,16.8 -14.41,16.8 -16.8,12 -21.6,7.2 -21.6,4.8 -23.99,2.4 -33.6,-2.4 -31.2,-12 -28.8,-16.8 -24,-24 -19.2,-31.2 -12,-38.4 -9.61,-43.2 -2.39,-52.8 2.39,-55.2 9.61,-48 12,-40.8 19.2,-33.6 24,-26.4 28.8,-16.8 31.2,-12 33.6,-2.4 h 19.2 l 16.8,4.8 19.2,4.8 16.79,7.2 16.8,7.2 16.8,9.6 14.4,12 14.41,9.6 v 84 h -129.61"
         style="fill:#8c0000;fill-opacity:1;fill-rule:evenodd;stroke:none"
         id="path78"
         inkscape:connector-curvature="0" /><path
         d="m 3651.59,3461.85 v 112.8 h 242.4 v -264 l -19.2,-21.6 -24,-19.2 -28.8,-16.8 -31.2,-14.4 -33.6,-14.4 -33.6,-9.6 -36,-4.79 -33.59,-2.41 -43.2,2.41 -40.8,7.19 -36,14.4 -33.6,19.2 -31.2,24 -26.4,28.8 -21.6,33.6 -19.2,38.4 -14.4,43.2 -9.6,43.2 -7.2,45.6 -2.41,45.6 2.41,50.4 7.2,48 9.6,43.2 16.79,43.2 21.61,38.4 24,31.2 28.8,28.8 33.59,24 28.81,14.39 31.19,12 36,4.81 38.41,2.39 50.4,-2.39 43.19,-9.6 38.4,-16.8 33.6,-21.6 26.4,-28.81 21.6,-33.59 16.8,-38.4 12,-43.2 -112.8,-26.4 -7.2,24 -12,21.6 -11.99,16.8 -14.41,16.8 -16.8,12 -21.6,7.2 -21.6,4.8 -23.99,2.4 -33.6,-2.4 -31.2,-12 -28.8,-16.8 -24,-24 -19.2,-31.2 -12,-38.4 -9.61,-43.2 -2.39,-52.8 2.39,-55.2 9.61,-48 12,-40.8 19.2,-33.6 24,-26.4 28.8,-16.8 31.2,-12 33.6,-2.4 h 19.2 l 16.8,4.8 19.2,4.8 16.79,7.2 16.8,7.2 16.8,9.6 14.4,12 14.41,9.6 v 84 z"
         style="fill:#8c0000;stroke:#0b0c0b;stroke-width:2.3980999;stroke-linecap:butt;stroke-linejoin:miter;stroke-miterlimit:2.61310005;stroke-dasharray:none;stroke-opacity:1;fill-opacity:1"
         id="path80"
         inkscape:connector-curvature="0" /><path
         d="m 3977.99,3545.85 2.4,48 2.4,45.6 7.2,40.8 12,36 12,24 12,24 14.4,21.6 14.4,21.6 16.8,19.2 19.2,16.8 19.2,14.39 19.2,9.61 26.4,12 28.8,7.19 31.2,4.81 33.6,2.39 60,-4.79 52.8,-16.8 45.6,-28.8 40.8,-40.81 33.6,-50.39 21.6,-57.6 14.4,-67.2 4.8,-76.8 -4.8,-76.8 -14.4,-67.2 -21.6,-57.6 -33.6,-50.4 -38.4,-40.8 -48,-28.8 -52.8,-16.8 -57.6,-4.8 -60,4.8 -52.8,16.8 -48,28.8 -40.8,38.4 -31.2,50.4 -21.6,57.6 -14.4,67.2 -4.8,74.4 z m 115.2,4.8 2.4,-52.8 9.6,-45.6 14.4,-40.8 19.2,-31.2 24,-26.4 26.4,-16.8 28.8,-12 33.6,-2.4 33.6,2.4 28.8,12 24,16.8 24,26.4 19.2,31.2 14.4,40.8 7.2,45.6 2.4,55.2 -2.4,52.8 -7.2,48 -12,38.4 -19.2,31.2 -24,24 -26.4,16.8 -28.8,12 -33.6,2.4 -33.6,-2.4 -31.2,-12 -26.4,-16.8 -24,-24 -19.2,-33.6 -12,-38.4 -9.6,-48 -2.4,-52.8 v 0"
         style="fill:#8c0000;fill-opacity:1;fill-rule:evenodd;stroke:none"
         id="path82"
         inkscape:connector-curvature="0" /><path
         d="m 3977.99,3545.85 2.4,48 2.4,45.6 7.2,40.8 12,36 12,24 12,24 14.4,21.6 14.4,21.6 16.8,19.2 19.2,16.8 19.2,14.39 19.2,9.61 26.4,12 28.8,7.19 31.2,4.81 33.6,2.39 60,-4.79 52.8,-16.8 45.6,-28.8 40.8,-40.81 33.6,-50.39 21.6,-57.6 14.4,-67.2 4.8,-76.8 -4.8,-76.8 -14.4,-67.2 -21.6,-57.6 -33.6,-50.4 -38.4,-40.8 -48,-28.8 -52.8,-16.8 -57.6,-4.8 -60,4.8 -52.8,16.8 -48,28.8 -40.8,38.4 -31.2,50.4 -21.6,57.6 -14.4,67.2 -4.8,74.4 z m 115.2,4.8 2.4,-52.8 9.6,-45.6 14.4,-40.8 19.2,-31.2 24,-26.4 26.4,-16.8 28.8,-12 33.6,-2.4 33.6,2.4 28.8,12 24,16.8 24,26.4 19.2,31.2 14.4,40.8 7.2,45.6 2.4,55.2 -2.4,52.8 -7.2,48 -12,38.4 -19.2,31.2 -24,24 -26.4,16.8 -28.8,12 -33.6,2.4 -33.6,-2.4 -31.2,-12 -26.4,-16.8 -24,-24 -19.2,-33.6 -12,-38.4 -9.6,-48 -2.4,-52.8 z"
         style="fill:#8c0000;stroke:#0b0c0b;stroke-width:2.3980999;stroke-linecap:butt;stroke-linejoin:miter;stroke-miterlimit:2.61310005;stroke-dasharray:none;stroke-opacity:1;fill-opacity:1"
         id="path84"
         inkscape:connector-curvature="0" /><path
         d="m 4616.39,3219.45 v 657.6 h 112.79 v -544.8 h 283.2 v -112.8 h -395.99"
         style="fill:#8c0000;fill-opacity:1;fill-rule:evenodd;stroke:none"
         id="path86"
         inkscape:connector-curvature="0" /><path
         d="m 4616.39,3219.45 v 657.6 h 112.79 v -544.8 h 283.2 v -112.8 z"
         style="fill:#8c0000;stroke:#0b0c0b;stroke-width:2.3980999;stroke-linecap:butt;stroke-linejoin:miter;stroke-miterlimit:2.61310005;stroke-dasharray:none;stroke-opacity:1;fill-opacity:1"
         id="path88"
         inkscape:connector-curvature="0" /><path
         d="m 5093.98,3884.25 h 240 l 28.8,-4.8 26.4,-2.4 19.2,-7.2 24,-9.6 21.6,-14.4 19.2,-16.8 19.2,-19.2 16.8,-24 14.39,-26.4 14.4,-26.4 9.6,-31.2 7.21,-33.6 4.79,-38.4 4.81,-40.8 v -45.6 -38.4 l -4.81,-36 -4.79,-33.6 -7.21,-31.2 -11.99,-33.6 -14.4,-31.2 -14.4,-28.8 -19.21,-24 -16.79,-16.8 -16.8,-14.4 -21.6,-12 -24,-9.6 -21.6,-7.2 -21.6,-4.8 -26.4,-2.4 h -31.2 -213.6 z m 115.2,-112.8 v -439.2 h 124.8 l 14.4,2.4 12,2.4 14.4,4.8 12,4.8 9.6,9.6 9.6,9.6 9.6,9.6 9.6,14.4 7.2,19.2 4.8,21.6 4.8,24 4.8,28.8 2.4,31.2 v 36 36 l -2.4,33.6 -4.8,26.4 -4.8,24 -7.2,19.2 -7.2,16.8 -9.6,14.4 -9.61,12 -9.59,12 -12,7.2 -14.4,7.2 -14.4,4.8 -14.4,2.39 -21.6,2.41 -26.4,2.4 h -31.2 -50.4"
         style="fill:#8c0000;fill-opacity:1;fill-rule:evenodd;stroke:none"
         id="path90"
         inkscape:connector-curvature="0" /><path
         d="m 5093.98,3884.25 h 240 l 28.8,-4.8 26.4,-2.4 19.2,-7.2 24,-9.6 21.6,-14.4 19.2,-16.8 19.2,-19.2 16.8,-24 14.39,-26.4 14.4,-26.4 9.6,-31.2 7.21,-33.6 4.79,-38.4 4.81,-40.8 v -45.6 -38.4 l -4.81,-36 -4.79,-33.6 -7.21,-31.2 -11.99,-33.6 -14.4,-31.2 -14.4,-28.8 -19.21,-24 -16.79,-16.8 -16.8,-14.4 -21.6,-12 -24,-9.6 -21.6,-7.2 -21.6,-4.8 -26.4,-2.4 h -31.2 -213.6 z m 115.2,-112.8 v -439.2 h 124.8 l 14.4,2.4 12,2.4 14.4,4.8 12,4.8 9.6,9.6 9.6,9.6 9.6,9.6 9.6,14.4 7.2,19.2 4.8,21.6 4.8,24 4.8,28.8 2.4,31.2 v 36 36 l -2.4,33.6 -4.8,26.4 -4.8,24 -7.2,19.2 -7.2,16.8 -9.6,14.4 -9.61,12 -9.59,12 -12,7.2 -14.4,7.2 -14.4,4.8 -14.4,2.39 -21.6,2.41 -26.4,2.4 h -31.2 z"
         style="fill:#8c0000;stroke:#0b0c0b;stroke-width:2.3980999;stroke-linecap:butt;stroke-linejoin:miter;stroke-miterlimit:2.61310005;stroke-dasharray:none;stroke-opacity:1;fill-opacity:1"
         id="path92"
         inkscape:connector-curvature="0" /><path
         d="m 6171.57,3219.45 h -124.8 l -48,151.2 h -225.6 l -47.99,-151.2 h -120 l 215.99,664.8 h 124.8 z m -211.2,264 -76.8,244.8 -76.8,-244.8 z"
         style="fill:#8c0000;fill-opacity:1;fill-rule:evenodd;stroke:none"
         id="path94"
         inkscape:connector-curvature="0" /><path
         d="m 6171.57,3219.45 h -124.8 l -48,151.2 h -225.6 l -47.99,-151.2 h -120 l 215.99,664.8 h 124.8 z m -211.2,264 -76.8,244.8 -76.8,-244.8 z"
         style="fill:#8c0000;stroke:#0b0c0b;stroke-width:2.3980999;stroke-linecap:butt;stroke-linejoin:miter;stroke-miterlimit:2.61310005;stroke-dasharray:none;stroke-opacity:1;fill-opacity:1"
         id="path96"
         inkscape:connector-curvature="0" /><path
         d="m 6229.16,3884.25 h 115.2 v -456 l 2.41,-16.8 4.79,-19.2 7.2,-16.8 12.01,-14.4 12,-14.4 14.39,-12 16.8,-7.2 21.6,-2.4 21.6,-2.4 24,2.4 19.2,2.4 16.8,7.2 14.4,12 12,12 7.2,12 7.2,14.4 2.4,16.8 2.4,19.2 2.4,26.4 v 31.2 36 369.6 h 115.2 v -350.4 -55.2 l -2.4,-48 -4.8,-38.4 -2.4,-28.8 -4.8,-24 -7.2,-21.6 -9.6,-19.2 -12,-16.8 -14.4,-16.8 -14.4,-14.4 -19.2,-12 -19.2,-12 -24,-9.6 -24,-4.8 -28.8,-4.8 h -31.2 l -38.4,2.41 -33.6,2.39 -28.8,7.2 -21.6,9.6 -19.2,12 -19.2,12 -14.39,16.8 -14.4,16.8 -9.6,19.2 -9.61,16.8 -7.2,19.2 -4.8,19.2 -4.79,31.2 -4.81,38.4 -2.4,45.6 v 52.8 355.2"
         style="fill:#8c0000;fill-opacity:1;fill-rule:evenodd;stroke:none"
         id="path98"
         inkscape:connector-curvature="0" /><path
         d="m 6229.16,3884.25 h 115.2 v -456 l 2.41,-16.8 4.79,-19.2 7.2,-16.8 12.01,-14.4 12,-14.4 14.39,-12 16.8,-7.2 21.6,-2.4 21.6,-2.4 24,2.4 19.2,2.4 16.8,7.2 14.4,12 12,12 7.2,12 7.2,14.4 2.4,16.8 2.4,19.2 2.4,26.4 v 31.2 36 369.6 h 115.2 v -350.4 -55.2 l -2.4,-48 -4.8,-38.4 -2.4,-28.8 -4.8,-24 -7.2,-21.6 -9.6,-19.2 -12,-16.8 -14.4,-16.8 -14.4,-14.4 -19.2,-12 -19.2,-12 -24,-9.6 -24,-4.8 -28.8,-4.8 h -31.2 l -38.4,2.41 -33.6,2.39 -28.8,7.2 -21.6,9.6 -19.2,12 -19.2,12 -14.39,16.8 -14.4,16.8 -9.6,19.2 -9.61,16.8 -7.2,19.2 -4.8,19.2 -4.79,31.2 -4.81,38.4 -2.4,45.6 v 52.8 z"
         style="fill:#8c0000;stroke:#0b0c0b;stroke-width:2.3980999;stroke-linecap:butt;stroke-linejoin:miter;stroke-miterlimit:2.61310005;stroke-dasharray:none;stroke-opacity:1;fill-opacity:1"
         id="path100"
         inkscape:connector-curvature="0" /><path
         d="m 6454.77,4405.04 35.99,2.4 31.2,12 28.8,16.8 26.4,19.2 21.6,26.4 14.4,31.2 12,31.2 2.4,36 -2.4,36 -12,31.2 -14.4,28.8 -21.6,26.4 -26.4,21.6 -28.8,14.4 -31.2,12 -35.99,2.4 -36,-2.4 -31.21,-12 -28.8,-14.4 -26.4,-21.6 -21.59,-26.4 -14.41,-28.8 -12,-31.2 -2.4,-36 2.4,-36 12,-31.2 14.41,-31.2 21.59,-26.4 26.4,-19.2 28.8,-16.8 31.21,-12 36,-2.4"
         style="fill:#8c0000;fill-opacity:1;fill-rule:evenodd;stroke:none"
         id="path102"
         inkscape:connector-curvature="0" /><path
         d="m 6454.77,4405.04 35.99,2.4 31.2,12 28.8,16.8 26.4,19.2 21.6,26.4 14.4,31.2 12,31.2 2.4,36 -2.4,36 -12,31.2 -14.4,28.8 -21.6,26.4 -26.4,21.6 -28.8,14.4 -31.2,12 -35.99,2.4 -36,-2.4 -31.21,-12 -28.8,-14.4 -26.4,-21.6 -21.59,-26.4 -14.41,-28.8 -12,-31.2 -2.4,-36 2.4,-36 12,-31.2 14.41,-31.2 21.59,-26.4 26.4,-19.2 28.8,-16.8 31.21,-12 z"
         style="fill:#8c0000;stroke:#0b0c0b;stroke-width:2.3980999;stroke-linecap:butt;stroke-linejoin:miter;stroke-miterlimit:2.61310005;stroke-dasharray:none;stroke-opacity:1;fill-opacity:1"
         id="path104"
         inkscape:connector-curvature="0" /></g></g></svg>